<svg width="33" height="33" viewBox="0 0 33 33" fill="none" xmlns="http://www.w3.org/2000/svg">
<g clip-path="url(#clip0_23_1587)">
<path d="M7.61478 14.4821H11.3103C11.5419 14.4821 11.763 14.5406 11.9736 14.6575C12.1842 14.7744 12.3421 14.949 12.4474 15.1812L13.8372 17.9776L17.7538 10.0968C17.9854 9.60955 18.3644 9.36592 18.8909 9.36592C19.4173 9.36592 19.7963 9.60955 20.028 10.0968L22.2074 14.4821H25.1132C24.7974 12.3212 23.8182 10.5099 22.1758 9.04814C20.5333 7.58638 18.5961 6.8555 16.364 6.8555C14.132 6.8555 12.1947 7.58638 10.5522 9.04814C8.90979 10.5099 7.93063 12.3212 7.61478 14.4821ZM16.364 24.6509C18.5961 24.6509 20.5333 23.92 22.1758 22.4582C23.8182 20.9965 24.7974 19.1852 25.1132 17.0243H21.4177C21.1861 17.0243 20.965 16.9658 20.7544 16.8489C20.5439 16.7319 20.3859 16.5574 20.2806 16.3252L18.8909 13.5288L14.9742 21.4096C14.7426 21.8968 14.3636 22.1405 13.8372 22.1405C13.3107 22.1405 12.9317 21.8968 12.7001 21.4096L10.5207 17.0243H7.61478C7.93063 19.1852 8.90979 20.9965 10.5522 22.4582C12.1947 23.92 14.132 24.6509 16.364 24.6509ZM16.364 27.1931C14.8058 27.1931 13.3368 26.891 11.9572 26.2868C10.5775 25.6826 9.37221 24.8619 8.34125 23.8247C7.30945 22.7866 6.49328 21.5736 5.89273 20.1855C5.29218 18.7975 4.99232 17.32 4.99317 15.7532H7.52002C7.52002 18.2107 8.38336 20.308 10.11 22.0451C11.8367 23.7823 13.9214 24.6509 16.364 24.6509C18.8066 24.6509 20.8913 23.7823 22.618 22.0451C24.3447 20.308 25.208 18.2107 25.208 15.7532H27.7349C27.7349 17.3209 27.4346 18.7988 26.834 20.1868C26.2335 21.5748 25.4177 22.7875 24.3868 23.8247C23.355 24.8627 22.1492 25.6839 20.7696 26.2881C19.3899 26.8923 17.9214 27.1939 16.364 27.1931ZM4.99317 15.7532C4.99317 14.1855 5.29344 12.7076 5.89399 11.3196C6.49454 9.93156 7.31029 8.71893 8.34125 7.68171C9.37305 6.64365 10.5788 5.82252 11.9584 5.21832C13.3381 4.61413 14.8066 4.31245 16.364 4.3133C17.6696 4.3133 18.9225 4.52515 20.1227 4.94885C21.323 5.37255 22.4495 5.98691 23.5024 6.79194L25.2712 5.0124L27.04 6.79194L25.2712 8.57148C26.0713 9.63073 26.682 10.7641 27.1031 11.9717C27.5243 13.1792 27.7349 14.4397 27.7349 15.7532H25.208C25.208 13.2957 24.3447 11.1984 22.618 9.46125C20.8913 7.72408 18.8066 6.8555 16.364 6.8555C13.9214 6.8555 11.8367 7.72408 10.11 9.46125C8.38336 11.1984 7.52002 13.2957 7.52002 15.7532H4.99317ZM12.5737 3.0422V0.5H20.1543V3.0422H12.5737ZM16.364 24.6509C13.9214 24.6509 11.8367 23.7823 10.11 22.0451C8.38336 20.308 7.52002 18.2107 7.52002 15.7532C7.52002 13.2957 8.38336 11.1984 10.11 9.46125C11.8367 7.72408 13.9214 6.8555 16.364 6.8555C18.8066 6.8555 20.8913 7.72408 22.618 9.46125C24.3447 11.1984 25.208 13.2957 25.208 15.7532C25.208 18.2107 24.3447 20.308 22.618 22.0451C20.8913 23.7823 18.8066 24.6509 16.364 24.6509Z" fill="#3A4062"/>
</g>
<defs>
<clipPath id="clip0_23_1587">
<rect width="32" height="32" fill="white" transform="translate(0.364258 0.5)"/>
</clipPath>
</defs>
</svg>
