<svg width="33" height="33" viewBox="0 0 33 33" fill="none" xmlns="http://www.w3.org/2000/svg">
<path d="M28.7422 11.5344L20.8078 10.3812L17.2609 3.19062C17.1641 2.99375 17.0047 2.83437 16.8078 2.7375C16.3141 2.49375 15.7141 2.69687 15.4672 3.19062L11.9203 10.3812L3.98595 11.5344C3.7672 11.5656 3.5672 11.6687 3.41407 11.825C3.22895 12.0153 3.12694 12.2712 3.13046 12.5367C3.13397 12.8021 3.24273 13.0553 3.43282 13.2406L9.17345 18.8375L7.8172 26.7406C7.78539 26.9245 7.80574 27.1135 7.87592 27.2864C7.94611 27.4593 8.06333 27.609 8.21429 27.7187C8.36525 27.8283 8.54391 27.8935 8.73001 27.9067C8.91611 27.92 9.10221 27.8809 9.2672 27.7937L16.3641 24.0625L23.4609 27.7937C23.6547 27.8969 23.8797 27.9312 24.0953 27.8937C24.6391 27.8 25.0047 27.2844 24.9109 26.7406L23.5547 18.8375L29.2953 13.2406C29.4516 13.0875 29.5547 12.8875 29.5859 12.6687C29.6703 12.1219 29.2891 11.6156 28.7422 11.5344V11.5344ZM21.1391 18.05L22.2672 24.6219L16.3641 21.5219L10.4609 24.625L11.5891 18.0531L6.81407 13.3969L13.4141 12.4375L16.3641 6.45937L19.3141 12.4375L25.9141 13.3969L21.1391 18.05Z" fill="#3A4062"/>
</svg>
