<svg width="25" height="24" viewBox="0 0 25 24" fill="none" xmlns="http://www.w3.org/2000/svg">
<path d="M16.4246 2.45395C16.7058 2.73524 16.8638 3.1167 16.8638 3.51445C16.8638 3.9122 16.7058 4.29366 16.4246 4.57495L8.99959 12L16.4246 19.425C16.6978 19.7079 16.849 20.0868 16.8456 20.4801C16.8422 20.8733 16.6844 21.2496 16.4063 21.5277C16.1282 21.8058 15.752 21.9635 15.3587 21.967C14.9654 21.9704 14.5865 21.8192 14.3036 21.5459L5.81809 13.0604C5.53688 12.7792 5.37891 12.3977 5.37891 12C5.37891 11.6022 5.53688 11.2207 5.81809 10.9395L14.3036 2.45395C14.5849 2.17274 14.9663 2.01477 15.3641 2.01477C15.7618 2.01477 16.1433 2.17274 16.4246 2.45395V2.45395Z" fill="#0E0E0E"/>
</svg>
