<svg width="25" height="25" viewBox="0 0 25 25" fill="none" xmlns="http://www.w3.org/2000/svg">
<path d="M16.4246 2.95401C16.7058 3.2353 16.8638 3.61676 16.8638 4.01451C16.8638 4.41226 16.7058 4.79372 16.4246 5.07501L8.99959 12.5L16.4246 19.925C16.6978 20.2079 16.849 20.5868 16.8456 20.9801C16.8422 21.3734 16.6844 21.7496 16.4063 22.0277C16.1282 22.3059 15.752 22.4636 15.3587 22.467C14.9654 22.4704 14.5865 22.3192 14.3036 22.046L5.81809 13.5605C5.53688 13.2792 5.37891 12.8978 5.37891 12.5C5.37891 12.1023 5.53688 11.7208 5.81809 11.4395L14.3036 2.95401C14.5849 2.6728 14.9663 2.51483 15.3641 2.51483C15.7618 2.51483 16.1433 2.6728 16.4246 2.95401V2.95401Z" fill="#0E0E0E"/>
</svg>
