<svg width="25" height="24" viewBox="0 0 25 24" fill="none" xmlns="http://www.w3.org/2000/svg">
<g clip-path="url(#clip0_10_1432)">
<path d="M21.3643 1.5C21.7621 1.5 22.1436 1.65804 22.4249 1.93934C22.7062 2.22064 22.8643 2.60218 22.8643 3V15C22.8643 15.3978 22.7062 15.7794 22.4249 16.0607C22.1436 16.342 21.7621 16.5 21.3643 16.5H6.98526C6.18967 16.5002 5.42674 16.8164 4.86426 17.379L1.86426 20.379V3C1.86426 2.60218 2.02229 2.22064 2.3036 1.93934C2.5849 1.65804 2.96643 1.5 3.36426 1.5H21.3643ZM3.36426 0C2.56861 0 1.80555 0.316071 1.24294 0.87868C0.680328 1.44129 0.364258 2.20435 0.364258 3L0.364258 22.1895C0.364289 22.3379 0.408347 22.483 0.490854 22.6063C0.573361 22.7297 0.690608 22.8258 0.827757 22.8825C0.964905 22.9392 1.11579 22.9539 1.26131 22.9248C1.40683 22.8957 1.54045 22.8241 1.64526 22.719L5.92476 18.4395C6.206 18.1582 6.58747 18.0001 6.98526 18H21.3643C22.1599 18 22.923 17.6839 23.4856 17.1213C24.0482 16.5587 24.3643 15.7957 24.3643 15V3C24.3643 2.20435 24.0482 1.44129 23.4856 0.87868C22.923 0.316071 22.1599 0 21.3643 0L3.36426 0Z" fill="#7381C4"/>
<path d="M7.86426 9C7.86426 9.39782 7.70622 9.77936 7.42492 10.0607C7.14361 10.342 6.76208 10.5 6.36426 10.5C5.96643 10.5 5.5849 10.342 5.3036 10.0607C5.02229 9.77936 4.86426 9.39782 4.86426 9C4.86426 8.60218 5.02229 8.22064 5.3036 7.93934C5.5849 7.65804 5.96643 7.5 6.36426 7.5C6.76208 7.5 7.14361 7.65804 7.42492 7.93934C7.70622 8.22064 7.86426 8.60218 7.86426 9V9ZM13.8643 9C13.8643 9.39782 13.7062 9.77936 13.4249 10.0607C13.1436 10.342 12.7621 10.5 12.3643 10.5C11.9664 10.5 11.5849 10.342 11.3036 10.0607C11.0223 9.77936 10.8643 9.39782 10.8643 9C10.8643 8.60218 11.0223 8.22064 11.3036 7.93934C11.5849 7.65804 11.9664 7.5 12.3643 7.5C12.7621 7.5 13.1436 7.65804 13.4249 7.93934C13.7062 8.22064 13.8643 8.60218 13.8643 9ZM19.8643 9C19.8643 9.39782 19.7062 9.77936 19.4249 10.0607C19.1436 10.342 18.7621 10.5 18.3643 10.5C17.9664 10.5 17.5849 10.342 17.3036 10.0607C17.0223 9.77936 16.8643 9.39782 16.8643 9C16.8643 8.60218 17.0223 8.22064 17.3036 7.93934C17.5849 7.65804 17.9664 7.5 18.3643 7.5C18.7621 7.5 19.1436 7.65804 19.4249 7.93934C19.7062 8.22064 19.8643 8.60218 19.8643 9Z" fill="#7381C4"/>
</g>
<defs>
<clipPath id="clip0_10_1432">
<rect width="24" height="24" fill="white" transform="translate(0.364258)"/>
</clipPath>
</defs>
</svg>
