<svg width="29" height="29" viewBox="0 0 29 29" fill="none" xmlns="http://www.w3.org/2000/svg">
<path d="M17.3532 11.1312L12.0612 11.7945L11.8722 12.673L12.9134 12.862C13.5907 13.0248 13.7254 13.268 13.5784 13.9453L11.8722 21.955C11.4259 24.0253 12.1172 25 13.7394 25C14.9994 25 16.4589 24.419 17.1222 23.6193L17.3252 22.6585C16.8649 23.0645 16.1877 23.2273 15.7414 23.2273C15.1062 23.2273 14.8769 22.781 15.0379 21.9952L17.3532 11.1312V11.1312ZM17.5124 6.31C17.5124 6.92265 17.269 7.51021 16.8358 7.94342C16.4026 8.37663 15.8151 8.62 15.2024 8.62C14.5898 8.62 14.0022 8.37663 13.569 7.94342C13.1358 7.51021 12.8924 6.92265 12.8924 6.31C12.8924 5.69735 13.1358 5.10979 13.569 4.67658C14.0022 4.24337 14.5898 4 15.2024 4C15.8151 4 16.4026 4.24337 16.8358 4.67658C17.269 5.10979 17.5124 5.69735 17.5124 6.31V6.31Z" fill="#3A4062"/>
</svg>
