<svg width="17" height="17" viewBox="0 0 17 17" fill="none" xmlns="http://www.w3.org/2000/svg">
<g clip-path="url(#clip0_10_1180)">
<path d="M15.8665 2.44C15.9599 2.53372 16.0124 2.66066 16.0124 2.793C16.0124 2.92533 15.9599 3.05227 15.8665 3.146L14.8235 4.19L12.8235 2.19L13.8665 1.146C13.9602 1.05226 14.0874 0.999603 14.22 0.999603C14.3525 0.999603 14.4797 1.05226 14.5735 1.146L15.8665 2.439V2.44ZM14.1165 4.896L12.1165 2.896L5.30346 9.71C5.24842 9.76502 5.20699 9.83214 5.18246 9.906L4.37746 12.32C4.36286 12.364 4.36079 12.4112 4.37148 12.4563C4.38216 12.5014 4.40518 12.5427 4.43797 12.5755C4.47076 12.6083 4.51201 12.6313 4.55713 12.642C4.60225 12.6527 4.64945 12.6506 4.69346 12.636L7.10746 11.831C7.18123 11.8068 7.24833 11.7657 7.30346 11.711L14.1165 4.897V4.896Z" fill="#90A1F5"/>
<path fill-rule="evenodd" clip-rule="evenodd" d="M1.36426 14C1.36426 14.3978 1.52229 14.7794 1.8036 15.0607C2.0849 15.342 2.46643 15.5 2.86426 15.5H13.8643C14.2621 15.5 14.6436 15.342 14.9249 15.0607C15.2062 14.7794 15.3643 14.3978 15.3643 14V8C15.3643 7.86739 15.3116 7.74021 15.2178 7.64645C15.124 7.55268 14.9969 7.5 14.8643 7.5C14.7316 7.5 14.6045 7.55268 14.5107 7.64645C14.4169 7.74021 14.3643 7.86739 14.3643 8V14C14.3643 14.1326 14.3116 14.2598 14.2178 14.3536C14.124 14.4473 13.9969 14.5 13.8643 14.5H2.86426C2.73165 14.5 2.60447 14.4473 2.5107 14.3536C2.41694 14.2598 2.36426 14.1326 2.36426 14V3C2.36426 2.86739 2.41694 2.74021 2.5107 2.64645C2.60447 2.55268 2.73165 2.5 2.86426 2.5H9.36426C9.49687 2.5 9.62404 2.44732 9.71781 2.35355C9.81158 2.25979 9.86426 2.13261 9.86426 2C9.86426 1.86739 9.81158 1.74021 9.71781 1.64645C9.62404 1.55268 9.49687 1.5 9.36426 1.5H2.86426C2.46643 1.5 2.0849 1.65804 1.8036 1.93934C1.52229 2.22064 1.36426 2.60218 1.36426 3V14Z" fill="#90A1F5"/>
</g>
<defs>
<clipPath id="clip0_10_1180">
<rect width="16" height="16" fill="white" transform="translate(0.364258 0.5)"/>
</clipPath>
</defs>
</svg>
