<svg width="31" height="31" viewBox="0 0 31 31" fill="none" xmlns="http://www.w3.org/2000/svg">
<path d="M17.6095 12.0024C17.6095 11.8127 17.6737 11.6174 17.8021 11.4167C17.9305 11.216 18.0728 11.0845 18.2288 11.022C18.8 10.8112 19.3712 10.6531 19.9424 10.5477C20.5136 10.4423 21.1148 10.3895 21.7458 10.3895C22.1398 10.3895 22.529 10.4161 22.9135 10.4692C23.298 10.5224 23.6769 10.5907 24.0504 10.6742C24.2277 10.7163 24.3805 10.8218 24.5089 10.9904C24.6374 11.1591 24.7012 11.3488 24.7004 11.5597C24.7004 11.9181 24.5921 12.1816 24.3754 12.3503C24.1587 12.519 23.883 12.5611 23.5481 12.4768C23.2724 12.4135 22.982 12.3659 22.6771 12.3339C22.3722 12.3018 22.0618 12.2862 21.7458 12.287C21.2337 12.287 20.7314 12.3398 20.239 12.4452C19.7466 12.5506 19.2739 12.6876 18.8208 12.8563C18.4663 13.0039 18.176 12.9933 17.9498 12.8247C17.7237 12.656 17.6103 12.3819 17.6095 12.0024ZM17.6095 18.9599C17.6095 18.7702 17.6737 18.575 17.8021 18.3742C17.9305 18.1735 18.0731 18.042 18.2299 17.9796C18.8011 17.7687 19.3724 17.6106 19.9436 17.5052C20.5148 17.3998 21.1155 17.3471 21.7458 17.3471C22.1398 17.3471 22.529 17.3736 22.9135 17.4268C23.298 17.4799 23.6769 17.5482 24.0504 17.6317C24.2277 17.6739 24.3805 17.7793 24.5089 17.9479C24.6374 18.1166 24.7012 18.3064 24.7004 18.5172C24.7004 18.8756 24.5921 19.1391 24.3754 19.3078C24.1587 19.4765 23.883 19.5186 23.5481 19.4343C23.2724 19.3711 22.982 19.3234 22.6771 19.2914C22.3722 19.2593 22.0618 19.2437 21.7458 19.2446C21.2337 19.2446 20.7314 19.2922 20.239 19.3875C19.7466 19.4828 19.2739 19.6144 18.8208 19.7822C18.4663 19.9298 18.1756 19.9243 17.9487 19.7657C17.7218 19.6072 17.6087 19.339 17.6095 18.9612V18.9599ZM17.6095 15.4812C17.6095 15.2914 17.6737 15.0962 17.8021 14.8955C17.9305 14.6948 18.0731 14.5632 18.2299 14.5008C18.8011 14.29 19.3724 14.1318 19.9436 14.0264C20.5148 13.921 21.1155 13.8683 21.7458 13.8683C22.1398 13.8683 22.529 13.8949 22.9135 13.948C23.298 14.0011 23.6769 14.0694 24.0504 14.1529C24.2277 14.1951 24.3805 14.3005 24.5089 14.4692C24.6374 14.6378 24.7012 14.8276 24.7004 15.0384C24.7004 15.3968 24.5921 15.6604 24.3754 15.8291C24.1587 15.9977 23.883 16.0399 23.5481 15.9556C23.2724 15.8923 22.982 15.8447 22.6771 15.8126C22.3722 15.7806 22.0618 15.765 21.7458 15.7658C21.2337 15.7658 20.7314 15.8185 20.239 15.9239C19.7466 16.0293 19.2739 16.1664 18.8208 16.3351C18.4663 16.4826 18.176 16.4721 17.9498 16.3034C17.7237 16.1348 17.6103 15.8607 17.6095 15.4812ZM8.74585 21.1421C9.6716 21.1421 10.5729 21.253 11.4498 21.4748C12.3268 21.6966 13.1981 22.0284 14.064 22.4703V10.01C13.2565 9.50404 12.3996 9.12454 11.4936 8.87154C10.5875 8.61854 9.6716 8.49204 8.74585 8.49204C8.03676 8.49204 7.33239 8.56583 6.63276 8.71342C5.93312 8.861 5.2587 9.08238 4.60949 9.37754V21.9011C5.29888 21.6481 5.98355 21.4583 6.66348 21.3318C7.34342 21.2053 8.03754 21.1421 8.74585 21.1421ZM16.4277 22.4703C17.2943 22.0276 18.1657 21.6953 19.0418 21.4735C19.918 21.2517 20.8193 21.1412 21.7458 21.1421C22.4549 21.1421 23.1494 21.2053 23.8294 21.3318C24.5093 21.4583 25.1936 21.6481 25.8822 21.9011V9.37754C25.2322 9.08238 24.5574 8.861 23.8578 8.71342C23.1581 8.56583 22.4541 8.49204 21.7458 8.49204C20.8201 8.49204 19.9042 8.61854 18.9981 8.87154C18.0921 9.12454 17.2352 9.50404 16.4277 10.01V22.4703ZM15.2458 25.538C14.9701 25.538 14.7089 25.5008 14.4623 25.4266C14.2157 25.3524 13.9845 25.2525 13.7686 25.1268C13.0004 24.6419 12.1928 24.2784 11.3458 24.0364C10.4989 23.7944 9.63221 23.6729 8.74585 23.6721C7.91857 23.6721 7.10588 23.788 6.30776 24.0199C5.50964 24.2519 4.74658 24.5787 4.01858 25.0003C3.60494 25.2322 3.20627 25.2217 2.82258 24.9687C2.43888 24.7157 2.24664 24.3467 2.24585 23.8618V8.61854C2.24585 8.38662 2.30021 8.16525 2.40894 7.95441C2.51767 7.74358 2.67997 7.58546 2.89585 7.48004C3.80191 6.97404 4.74736 6.59454 5.73221 6.34154C6.71706 6.08854 7.72161 5.96204 8.74585 5.96204C9.88827 5.96204 11.0063 6.12016 12.0998 6.43641C13.1934 6.75266 14.2421 7.22704 15.2458 7.85954C16.2504 7.22704 17.2995 6.75266 18.393 6.43641C19.4866 6.12016 20.6042 5.96204 21.7458 5.96204C22.7701 5.96204 23.7746 6.08854 24.7595 6.34154C25.7443 6.59454 26.6898 6.97404 27.5958 7.48004C27.8125 7.58546 27.9752 7.74358 28.0839 7.95441C28.1927 8.16525 28.2466 8.38662 28.2458 8.61854V23.8618C28.2458 24.3467 28.054 24.7157 27.6703 24.9687C27.2866 25.2217 26.8875 25.2322 26.4731 25.0003C25.7443 24.5787 24.9813 24.2519 24.1839 24.0199C23.3866 23.788 22.5739 23.6721 21.7458 23.6721C20.8595 23.6721 19.9928 23.7935 19.1458 24.0364C18.2989 24.2793 17.4913 24.6427 16.7231 25.1268C16.5065 25.2533 16.2748 25.3537 16.0282 25.4279C15.7816 25.5021 15.5208 25.5388 15.2458 25.538Z" fill="#0E0E0E" fill-opacity="0.6"/>
</svg>
