<svg width="31" height="31" viewBox="0 0 31 31" fill="none" xmlns="http://www.w3.org/2000/svg">
<path d="M17.4911 11.7524C17.4911 11.5627 17.5553 11.3674 17.6837 11.1667C17.8121 10.966 17.9543 10.8345 18.1103 10.772C18.6816 10.5612 19.2528 10.4031 19.824 10.2977C20.3952 10.1923 20.9963 10.1395 21.6274 10.1395C22.0214 10.1395 22.4106 10.1661 22.7951 10.2192C23.1796 10.2724 23.5585 10.3407 23.932 10.4242C24.1093 10.4663 24.2621 10.5718 24.3905 10.7404C24.5189 10.9091 24.5828 11.0988 24.582 11.3097C24.582 11.6681 24.4736 11.9316 24.257 12.1003C24.0403 12.269 23.7646 12.3111 23.4297 12.2268C23.1539 12.1635 22.8636 12.1159 22.5587 12.0839C22.2538 12.0518 21.9434 12.0362 21.6274 12.037C21.1153 12.037 20.613 12.0898 20.1206 12.1952C19.6282 12.3006 19.1555 12.4376 18.7024 12.6063C18.3479 12.7539 18.0576 12.7433 17.8314 12.5747C17.6053 12.406 17.4919 12.1319 17.4911 11.7524ZM17.4911 18.7099C17.4911 18.5202 17.5553 18.325 17.6837 18.1242C17.8121 17.9235 17.9547 17.792 18.1115 17.7296C18.6827 17.5187 19.254 17.3606 19.8252 17.2552C20.3964 17.1498 20.9971 17.0971 21.6274 17.0971C22.0214 17.0971 22.4106 17.1236 22.7951 17.1768C23.1796 17.2299 23.5585 17.2982 23.932 17.3817C24.1093 17.4239 24.2621 17.5293 24.3905 17.6979C24.5189 17.8666 24.5828 18.0564 24.582 18.2672C24.582 18.6256 24.4736 18.8891 24.257 19.0578C24.0403 19.2265 23.7646 19.2686 23.4297 19.1843C23.1539 19.1211 22.8636 19.0734 22.5587 19.0414C22.2538 19.0093 21.9434 18.9937 21.6274 18.9946C21.1153 18.9946 20.613 19.0422 20.1206 19.1375C19.6282 19.2328 19.1555 19.3644 18.7024 19.5322C18.3479 19.6798 18.0572 19.6743 17.8303 19.5157C17.6033 19.3572 17.4903 19.089 17.4911 18.7112V18.7099ZM17.4911 15.2312C17.4911 15.0414 17.5553 14.8462 17.6837 14.6455C17.8121 14.4448 17.9547 14.3132 18.1115 14.2508C18.6827 14.04 19.254 13.8818 19.8252 13.7764C20.3964 13.671 20.9971 13.6183 21.6274 13.6183C22.0214 13.6183 22.4106 13.6449 22.7951 13.698C23.1796 13.7511 23.5585 13.8194 23.932 13.9029C24.1093 13.9451 24.2621 14.0505 24.3905 14.2192C24.5189 14.3878 24.5828 14.5776 24.582 14.7884C24.582 15.1468 24.4736 15.4104 24.257 15.5791C24.0403 15.7477 23.7646 15.7899 23.4297 15.7056C23.1539 15.6423 22.8636 15.5947 22.5587 15.5626C22.2538 15.5306 21.9434 15.515 21.6274 15.5158C21.1153 15.5158 20.613 15.5685 20.1206 15.6739C19.6282 15.7793 19.1555 15.9164 18.7024 16.0851C18.3479 16.2326 18.0576 16.2221 17.8314 16.0534C17.6053 15.8848 17.4919 15.6107 17.4911 15.2312ZM8.62744 20.8921C9.5532 20.8921 10.4545 21.003 11.3314 21.2248C12.2083 21.4466 13.0797 21.7784 13.9456 22.2203V9.76004C13.138 9.25404 12.2812 8.87454 11.3752 8.62154C10.4691 8.36854 9.5532 8.24204 8.62744 8.24204C7.91835 8.24204 7.21398 8.31583 6.51435 8.46342C5.81471 8.611 5.14029 8.83238 4.49108 9.12754V21.6511C5.18047 21.3981 5.86514 21.2083 6.54508 21.0818C7.22502 20.9553 7.91914 20.8921 8.62744 20.8921ZM16.3093 22.2203C17.1759 21.7776 18.0473 21.4453 18.9234 21.2235C19.7996 21.0017 20.7009 20.8912 21.6274 20.8921C22.3365 20.8921 23.031 20.9553 23.711 21.0818C24.3909 21.2083 25.0752 21.3981 25.7638 21.6511V9.12754C25.1138 8.83238 24.439 8.611 23.7393 8.46342C23.0397 8.31583 22.3357 8.24204 21.6274 8.24204C20.7017 8.24204 19.7858 8.36854 18.8797 8.62154C17.9736 8.87454 17.1168 9.25404 16.3093 9.76004V22.2203ZM15.1274 25.288C14.8517 25.288 14.5905 25.2508 14.3439 25.1766C14.0973 25.1024 13.866 25.0025 13.6502 24.8768C12.882 24.3919 12.0744 24.0284 11.2274 23.7864C10.3805 23.5444 9.5138 23.4229 8.62744 23.4221C7.80017 23.4221 6.98747 23.538 6.18935 23.7699C5.39123 24.0019 4.62817 24.3287 3.90017 24.7503C3.48653 24.9822 3.08787 24.9717 2.70417 24.7187C2.32047 24.4657 2.12823 24.0967 2.12744 23.6118V8.36854C2.12744 8.13662 2.18181 7.91525 2.29053 7.70441C2.39926 7.49358 2.56156 7.33546 2.77744 7.23004C3.6835 6.72404 4.62896 6.34454 5.6138 6.09154C6.59865 5.83854 7.6032 5.71204 8.62744 5.71204C9.76986 5.71204 10.8879 5.87016 11.9814 6.18641C13.075 6.50266 14.1237 6.97704 15.1274 7.60954C16.132 6.97704 17.181 6.50266 18.2746 6.18641C19.3682 5.87016 20.4858 5.71204 21.6274 5.71204C22.6517 5.71204 23.6562 5.83854 24.6411 6.09154C25.6259 6.34454 26.5714 6.72404 27.4774 7.23004C27.6941 7.33546 27.8568 7.49358 27.9655 7.70441C28.0743 7.91525 28.1282 8.13662 28.1274 8.36854V23.6118C28.1274 24.0967 27.9356 24.4657 27.5519 24.7187C27.1682 24.9717 26.7691 24.9822 26.3547 24.7503C25.6259 24.3287 24.8629 24.0019 24.0655 23.7699C23.2682 23.538 22.4555 23.4221 21.6274 23.4221C20.7411 23.4221 19.8744 23.5435 19.0274 23.7864C18.1805 24.0293 17.3729 24.3927 16.6047 24.8768C16.388 25.0033 16.1564 25.1037 15.9098 25.1779C15.6632 25.2521 15.4024 25.2888 15.1274 25.288Z" fill="#90A1F5"/>
</svg>
