<svg width="31" height="31" viewBox="0 0 31 31" fill="none" xmlns="http://www.w3.org/2000/svg">
<path d="M17.9737 12.0024C17.9737 11.8127 18.038 11.6174 18.1664 11.4167C18.2948 11.216 18.437 11.0845 18.593 11.022C19.1642 10.8112 19.7354 10.6531 20.3066 10.5477C20.8779 10.4423 21.479 10.3895 22.1101 10.3895C22.504 10.3895 22.8933 10.4161 23.2777 10.4692C23.6622 10.5224 24.0412 10.5907 24.4146 10.6742C24.5919 10.7163 24.7448 10.8218 24.8732 10.9904C25.0016 11.1591 25.0654 11.3488 25.0646 11.5597C25.0646 11.9181 24.9563 12.1816 24.7396 12.3503C24.523 12.519 24.2472 12.5611 23.9124 12.4768C23.6366 12.4135 23.3463 12.3659 23.0414 12.3339C22.7365 12.3018 22.426 12.2862 22.1101 12.287C21.598 12.287 21.0957 12.3398 20.6033 12.4452C20.1109 12.5506 19.6381 12.6876 19.1851 12.8563C18.8306 13.0039 18.5402 12.9933 18.3141 12.8247C18.088 12.656 17.9745 12.3819 17.9737 12.0024ZM17.9737 18.9599C17.9737 18.7702 18.038 18.575 18.1664 18.3742C18.2948 18.1735 18.4374 18.042 18.5942 17.9796C19.1654 17.7687 19.7366 17.6106 20.3078 17.5052C20.879 17.3998 21.4798 17.3471 22.1101 17.3471C22.504 17.3471 22.8933 17.3736 23.2777 17.4268C23.6622 17.4799 24.0412 17.5482 24.4146 17.6317C24.5919 17.6739 24.7448 17.7793 24.8732 17.9479C25.0016 18.1166 25.0654 18.3064 25.0646 18.5172C25.0646 18.8756 24.9563 19.1391 24.7396 19.3078C24.523 19.4765 24.2472 19.5186 23.9124 19.4343C23.6366 19.3711 23.3463 19.3234 23.0414 19.2914C22.7365 19.2593 22.426 19.2437 22.1101 19.2446C21.598 19.2446 21.0957 19.2922 20.6033 19.3875C20.1109 19.4828 19.6381 19.6144 19.1851 19.7822C18.8306 19.9298 18.5398 19.9243 18.3129 19.7657C18.086 19.6072 17.973 19.339 17.9737 18.9612V18.9599ZM17.9737 15.4812C17.9737 15.2914 18.038 15.0962 18.1664 14.8955C18.2948 14.6948 18.4374 14.5632 18.5942 14.5008C19.1654 14.29 19.7366 14.1318 20.3078 14.0264C20.879 13.921 21.4798 13.8683 22.1101 13.8683C22.504 13.8683 22.8933 13.8949 23.2777 13.948C23.6622 14.0011 24.0412 14.0694 24.4146 14.1529C24.5919 14.1951 24.7448 14.3005 24.8732 14.4692C25.0016 14.6378 25.0654 14.8276 25.0646 15.0384C25.0646 15.3968 24.9563 15.6604 24.7396 15.8291C24.523 15.9977 24.2472 16.0399 23.9124 15.9556C23.6366 15.8923 23.3463 15.8447 23.0414 15.8126C22.7365 15.7806 22.426 15.765 22.1101 15.7658C21.598 15.7658 21.0957 15.8185 20.6033 15.9239C20.1109 16.0293 19.6381 16.1664 19.1851 16.3351C18.8306 16.4826 18.5402 16.4721 18.3141 16.3034C18.088 16.1348 17.9745 15.8607 17.9737 15.4812ZM9.11011 21.1421C10.0359 21.1421 10.9372 21.253 11.8141 21.4748C12.691 21.6966 13.5624 22.0284 14.4283 22.4703V10.01C13.6207 9.50404 12.7639 9.12454 11.8578 8.87154C10.9518 8.61854 10.0359 8.49204 9.11011 8.49204C8.40101 8.49204 7.69665 8.56583 6.99701 8.71342C6.29738 8.861 5.62295 9.08238 4.97374 9.37754V21.9011C5.66314 21.6481 6.3478 21.4583 7.02774 21.3318C7.70768 21.2053 8.4018 21.1421 9.11011 21.1421ZM16.7919 22.4703C17.6586 22.0276 18.53 21.6953 19.4061 21.4735C20.2822 21.2517 21.1836 21.1412 22.1101 21.1421C22.8192 21.1421 23.5137 21.2053 24.1936 21.3318C24.8736 21.4583 25.5579 21.6481 26.2465 21.9011V9.37754C25.5965 9.08238 24.9216 8.861 24.222 8.71342C23.5224 8.56583 22.8184 8.49204 22.1101 8.49204C21.1843 8.49204 20.2684 8.61854 19.3624 8.87154C18.4563 9.12454 17.5995 9.50404 16.7919 10.01V22.4703ZM15.6101 25.538C15.3343 25.538 15.0732 25.5008 14.8266 25.4266C14.58 25.3524 14.3487 25.2525 14.1328 25.1268C13.3646 24.6419 12.5571 24.2784 11.7101 24.0364C10.8631 23.7944 9.99647 23.6729 9.11011 23.6721C8.28283 23.6721 7.47014 23.788 6.67201 24.0199C5.87389 24.2519 5.11083 24.5787 4.38283 25.0003C3.9692 25.2322 3.57053 25.2217 3.18683 24.9687C2.80314 24.7157 2.6109 24.3467 2.61011 23.8618V8.61854C2.61011 8.38662 2.66447 8.16525 2.7732 7.95441C2.88193 7.74358 3.04423 7.58546 3.26011 7.48004C4.16617 6.97404 5.11162 6.59454 6.09647 6.34154C7.08132 6.08854 8.08586 5.96204 9.11011 5.96204C10.2525 5.96204 11.3705 6.12016 12.4641 6.43641C13.5577 6.75266 14.6063 7.22704 15.6101 7.85954C16.6146 7.22704 17.6637 6.75266 18.7573 6.43641C19.8509 6.12016 20.9685 5.96204 22.1101 5.96204C23.1343 5.96204 24.1389 6.08854 25.1237 6.34154C26.1086 6.59454 27.054 6.97404 27.9601 7.48004C28.1768 7.58546 28.3395 7.74358 28.4482 7.95441C28.5569 8.16525 28.6109 8.38662 28.6101 8.61854V23.8618C28.6101 24.3467 28.4183 24.7157 28.0346 24.9687C27.6509 25.2217 27.2518 25.2322 26.8374 25.0003C26.1086 24.5787 25.3455 24.2519 24.5482 24.0199C23.7509 23.788 22.9382 23.6721 22.1101 23.6721C21.2237 23.6721 20.3571 23.7935 19.5101 24.0364C18.6631 24.2793 17.8556 24.6427 17.0874 25.1268C16.8707 25.2533 16.6391 25.3537 16.3925 25.4279C16.1459 25.5021 15.8851 25.5388 15.6101 25.538Z" fill="#0E0E0E" fill-opacity="0.6"/>
</svg>
