<svg width="31" height="31" viewBox="0 0 31 31" fill="none" xmlns="http://www.w3.org/2000/svg">
<path d="M17.6268 11.7524C17.6268 11.5627 17.691 11.3674 17.8195 11.1667C17.9479 10.966 18.0901 10.8345 18.2461 10.772C18.8173 10.5612 19.3885 10.4031 19.9597 10.2977C20.5309 10.1923 21.1321 10.1395 21.7632 10.1395C22.1571 10.1395 22.5463 10.1661 22.9308 10.2192C23.3153 10.2724 23.6943 10.3407 24.0677 10.4242C24.245 10.4663 24.3978 10.5718 24.5263 10.7404C24.6547 10.9091 24.7185 11.0988 24.7177 11.3097C24.7177 11.6681 24.6094 11.9316 24.3927 12.1003C24.1761 12.269 23.9003 12.3111 23.5654 12.2268C23.2897 12.1635 22.9994 12.1159 22.6944 12.0839C22.3895 12.0518 22.0791 12.0362 21.7632 12.037C21.2511 12.037 20.7488 12.0898 20.2564 12.1952C19.7639 12.3006 19.2912 12.4376 18.8382 12.6063C18.4836 12.7539 18.1933 12.7433 17.9672 12.5747C17.7411 12.406 17.6276 12.1319 17.6268 11.7524ZM17.6268 18.7099C17.6268 18.5202 17.691 18.325 17.8195 18.1242C17.9479 17.9235 18.0905 17.792 18.2473 17.7296C18.8185 17.5187 19.3897 17.3606 19.9609 17.2552C20.5321 17.1498 21.1329 17.0971 21.7632 17.0971C22.1571 17.0971 22.5463 17.1236 22.9308 17.1768C23.3153 17.2299 23.6943 17.2982 24.0677 17.3817C24.245 17.4239 24.3978 17.5293 24.5263 17.6979C24.6547 17.8666 24.7185 18.0564 24.7177 18.2672C24.7177 18.6256 24.6094 18.8891 24.3927 19.0578C24.1761 19.2265 23.9003 19.2686 23.5654 19.1843C23.2897 19.1211 22.9994 19.0734 22.6944 19.0414C22.3895 19.0093 22.0791 18.9937 21.7632 18.9946C21.2511 18.9946 20.7488 19.0422 20.2564 19.1375C19.7639 19.2328 19.2912 19.3644 18.8382 19.5322C18.4836 19.6798 18.1929 19.6743 17.966 19.5157C17.7391 19.3572 17.626 19.089 17.6268 18.7112V18.7099ZM17.6268 15.2312C17.6268 15.0414 17.691 14.8462 17.8195 14.6455C17.9479 14.4448 18.0905 14.3132 18.2473 14.2508C18.8185 14.04 19.3897 13.8818 19.9609 13.7764C20.5321 13.671 21.1329 13.6183 21.7632 13.6183C22.1571 13.6183 22.5463 13.6449 22.9308 13.698C23.3153 13.7511 23.6943 13.8194 24.0677 13.9029C24.245 13.9451 24.3978 14.0505 24.5263 14.2192C24.6547 14.3878 24.7185 14.5776 24.7177 14.7884C24.7177 15.1468 24.6094 15.4104 24.3927 15.5791C24.1761 15.7477 23.9003 15.7899 23.5654 15.7056C23.2897 15.6423 22.9994 15.5947 22.6944 15.5626C22.3895 15.5306 22.0791 15.515 21.7632 15.5158C21.2511 15.5158 20.7488 15.5685 20.2564 15.6739C19.7639 15.7793 19.2912 15.9164 18.8382 16.0851C18.4836 16.2326 18.1933 16.2221 17.9672 16.0534C17.7411 15.8848 17.6276 15.6107 17.6268 15.2312ZM8.76318 20.8921C9.68894 20.8921 10.5903 21.003 11.4672 21.2248C12.3441 21.4466 13.2155 21.7784 14.0814 22.2203V9.76004C13.2738 9.25404 12.417 8.87454 11.5109 8.62154C10.6048 8.36854 9.68894 8.24204 8.76318 8.24204C8.05409 8.24204 7.34973 8.31583 6.65009 8.46342C5.95045 8.611 5.27603 8.83238 4.62682 9.12754V21.6511C5.31621 21.3981 6.00088 21.2083 6.68082 21.0818C7.36076 20.9553 8.05488 20.8921 8.76318 20.8921ZM16.445 22.2203C17.3117 21.7776 18.1831 21.4453 19.0592 21.2235C19.9353 21.0017 20.8366 20.8912 21.7632 20.8921C22.4723 20.8921 23.1668 20.9553 23.8467 21.0818C24.5267 21.2083 25.2109 21.3981 25.8995 21.6511V9.12754C25.2495 8.83238 24.5747 8.611 23.8751 8.46342C23.1754 8.31583 22.4715 8.24204 21.7632 8.24204C20.8374 8.24204 19.9215 8.36854 19.0155 8.62154C18.1094 8.87454 17.2526 9.25404 16.445 9.76004V22.2203ZM15.2632 25.288C14.9874 25.288 14.7262 25.2508 14.4796 25.1766C14.233 25.1024 14.0018 25.0025 13.7859 24.8768C13.0177 24.3919 12.2101 24.0284 11.3632 23.7864C10.5162 23.5444 9.64954 23.4229 8.76318 23.4221C7.93591 23.4221 7.12321 23.538 6.32509 23.7699C5.52697 24.0019 4.76391 24.3287 4.03591 24.7503C3.62227 24.9822 3.22361 24.9717 2.83991 24.7187C2.45621 24.4657 2.26397 24.0967 2.26318 23.6118V8.36854C2.26318 8.13662 2.31755 7.91525 2.42627 7.70441C2.535 7.49358 2.6973 7.33546 2.91318 7.23004C3.81924 6.72404 4.7647 6.34454 5.74955 6.09154C6.73439 5.83854 7.73894 5.71204 8.76318 5.71204C9.90561 5.71204 11.0236 5.87016 12.1172 6.18641C13.2108 6.50266 14.2594 6.97704 15.2632 7.60954C16.2677 6.97704 17.3168 6.50266 18.4104 6.18641C19.5039 5.87016 20.6215 5.71204 21.7632 5.71204C22.7874 5.71204 23.792 5.83854 24.7768 6.09154C25.7617 6.34454 26.7071 6.72404 27.6132 7.23004C27.8298 7.33546 27.9925 7.49358 28.1013 7.70441C28.21 7.91525 28.264 8.13662 28.2632 8.36854V23.6118C28.2632 24.0967 28.0713 24.4657 27.6876 24.7187C27.3039 24.9717 26.9049 24.9822 26.4904 24.7503C25.7617 24.3287 24.9986 24.0019 24.2013 23.7699C23.4039 23.538 22.5912 23.4221 21.7632 23.4221C20.8768 23.4221 20.0101 23.5435 19.1632 23.7864C18.3162 24.0293 17.5086 24.3927 16.7405 24.8768C16.5238 25.0033 16.2921 25.1037 16.0455 25.1779C15.7989 25.2521 15.5381 25.2888 15.2632 25.288Z" fill="#90A1F5"/>
</svg>
