<svg width="31" height="31" viewBox="0 0 31 31" fill="none" xmlns="http://www.w3.org/2000/svg">
<path d="M17.7628 11.7524C17.7628 11.5627 17.827 11.3674 17.9554 11.1667C18.0839 10.966 18.2261 10.8345 18.3821 10.772C18.9533 10.5612 19.5245 10.4031 20.0957 10.2977C20.6669 10.1923 21.2681 10.1395 21.8992 10.1395C22.2931 10.1395 22.6823 10.1661 23.0668 10.2192C23.4513 10.2724 23.8303 10.3407 24.2037 10.4242C24.381 10.4663 24.5338 10.5718 24.6623 10.7404C24.7907 10.9091 24.8545 11.0988 24.8537 11.3097C24.8537 11.6681 24.7454 11.9316 24.5287 12.1003C24.312 12.269 24.0363 12.3111 23.7014 12.2268C23.4257 12.1635 23.1353 12.1159 22.8304 12.0839C22.5255 12.0518 22.2151 12.0362 21.8992 12.037C21.387 12.037 20.8848 12.0898 20.3923 12.1952C19.8999 12.3006 19.4272 12.4376 18.9742 12.6063C18.6196 12.7539 18.3293 12.7433 18.1032 12.5747C17.877 12.406 17.7636 12.1319 17.7628 11.7524ZM17.7628 18.7099C17.7628 18.5202 17.827 18.325 17.9554 18.1242C18.0839 17.9235 18.2265 17.792 18.3833 17.7296C18.9545 17.5187 19.5257 17.3606 20.0969 17.2552C20.6681 17.1498 21.2689 17.0971 21.8992 17.0971C22.2931 17.0971 22.6823 17.1236 23.0668 17.1768C23.4513 17.2299 23.8303 17.2982 24.2037 17.3817C24.381 17.4239 24.5338 17.5293 24.6623 17.6979C24.7907 17.8666 24.8545 18.0564 24.8537 18.2672C24.8537 18.6256 24.7454 18.8891 24.5287 19.0578C24.312 19.2265 24.0363 19.2686 23.7014 19.1843C23.4257 19.1211 23.1353 19.0734 22.8304 19.0414C22.5255 19.0093 22.2151 18.9937 21.8992 18.9946C21.387 18.9946 20.8848 19.0422 20.3923 19.1375C19.8999 19.2328 19.4272 19.3644 18.9742 19.5322C18.6196 19.6798 18.3289 19.6743 18.102 19.5157C17.8751 19.3572 17.762 19.089 17.7628 18.7112V18.7099ZM17.7628 15.2312C17.7628 15.0414 17.827 14.8462 17.9554 14.6455C18.0839 14.4448 18.2265 14.3132 18.3833 14.2508C18.9545 14.04 19.5257 13.8818 20.0969 13.7764C20.6681 13.671 21.2689 13.6183 21.8992 13.6183C22.2931 13.6183 22.6823 13.6449 23.0668 13.698C23.4513 13.7511 23.8303 13.8194 24.2037 13.9029C24.381 13.9451 24.5338 14.0505 24.6623 14.2192C24.7907 14.3878 24.8545 14.5776 24.8537 14.7884C24.8537 15.1468 24.7454 15.4104 24.5287 15.5791C24.312 15.7477 24.0363 15.7899 23.7014 15.7056C23.4257 15.6423 23.1353 15.5947 22.8304 15.5626C22.5255 15.5306 22.2151 15.515 21.8992 15.5158C21.387 15.5158 20.8848 15.5685 20.3923 15.6739C19.8999 15.7793 19.4272 15.9164 18.9742 16.0851C18.6196 16.2326 18.3293 16.2221 18.1032 16.0534C17.877 15.8848 17.7636 15.6107 17.7628 15.2312ZM8.89917 20.8921C9.82492 20.8921 10.7263 21.003 11.6032 21.2248C12.4801 21.4466 13.3515 21.7784 14.2173 22.2203V9.76004C13.4098 9.25404 12.553 8.87454 11.6469 8.62154C10.7408 8.36854 9.82492 8.24204 8.89917 8.24204C8.19008 8.24204 7.48571 8.31583 6.78608 8.46342C6.08644 8.611 5.41202 8.83238 4.76281 9.12754V21.6511C5.4522 21.3981 6.13687 21.2083 6.8168 21.0818C7.49674 20.9553 8.19086 20.8921 8.89917 20.8921ZM16.581 22.2203C17.4476 21.7776 18.319 21.4453 19.1952 21.2235C20.0713 21.0017 20.9726 20.8912 21.8992 20.8921C22.6083 20.8921 23.3028 20.9553 23.9827 21.0818C24.6626 21.2083 25.3469 21.3981 26.0355 21.6511V9.12754C25.3855 8.83238 24.7107 8.611 24.0111 8.46342C23.3114 8.31583 22.6075 8.24204 21.8992 8.24204C20.9734 8.24204 20.0575 8.36854 19.1514 8.62154C18.2454 8.87454 17.3886 9.25404 16.581 9.76004V22.2203ZM15.3992 25.288C15.1234 25.288 14.8622 25.2508 14.6156 25.1766C14.369 25.1024 14.1378 25.0025 13.9219 24.8768C13.1537 24.3919 12.3461 24.0284 11.4992 23.7864C10.6522 23.5444 9.78553 23.4229 8.89917 23.4221C8.0719 23.4221 7.2592 23.538 6.46108 23.7699C5.66296 24.0019 4.8999 24.3287 4.1719 24.7503C3.75826 24.9822 3.35959 24.9717 2.9759 24.7187C2.5922 24.4657 2.39996 24.0967 2.39917 23.6118V8.36854C2.39917 8.13662 2.45353 7.91525 2.56226 7.70441C2.67099 7.49358 2.83329 7.33546 3.04917 7.23004C3.95523 6.72404 4.90068 6.34454 5.88553 6.09154C6.87038 5.83854 7.87493 5.71204 8.89917 5.71204C10.0416 5.71204 11.1596 5.87016 12.2532 6.18641C13.3467 6.50266 14.3954 6.97704 15.3992 7.60954C16.4037 6.97704 17.4528 6.50266 18.5463 6.18641C19.6399 5.87016 20.7575 5.71204 21.8992 5.71204C22.9234 5.71204 23.9279 5.83854 24.9128 6.09154C25.8976 6.34454 26.8431 6.72404 27.7492 7.23004C27.9658 7.33546 28.1285 7.49358 28.2373 7.70441C28.346 7.91525 28.3999 8.13662 28.3992 8.36854V23.6118C28.3992 24.0967 28.2073 24.4657 27.8236 24.7187C27.4399 24.9717 27.0409 24.9822 26.6264 24.7503C25.8976 24.3287 25.1346 24.0019 24.3373 23.7699C23.5399 23.538 22.7272 23.4221 21.8992 23.4221C21.0128 23.4221 20.1461 23.5435 19.2992 23.7864C18.4522 24.0293 17.6446 24.3927 16.8764 24.8768C16.6598 25.0033 16.4281 25.1037 16.1815 25.1779C15.9349 25.2521 15.6741 25.2888 15.3992 25.288Z" fill="#90A1F5"/>
</svg>
