<svg width="31" height="31" viewBox="0 0 31 31" fill="none" xmlns="http://www.w3.org/2000/svg">
<path d="M22.4982 15.8663C22.3822 15.7501 22.2444 15.6579 22.0928 15.595C21.9412 15.5321 21.7786 15.4997 21.6144 15.4997C21.4503 15.4997 21.2877 15.5321 21.1361 15.595C20.9844 15.6579 20.8467 15.7501 20.7307 15.8663L18.7382 17.8587C17.8144 17.5837 16.0907 16.9588 14.9982 15.8663C13.9057 14.7738 13.2807 13.05 13.0057 12.1262L14.9982 10.1337C15.1144 10.0178 15.2065 9.88001 15.2694 9.72837C15.3323 9.57672 15.3647 9.41417 15.3647 9.25C15.3647 9.08583 15.3323 8.92328 15.2694 8.77163C15.2065 8.61999 15.1144 8.48223 14.9982 8.36625L9.99818 3.36625C9.8822 3.25007 9.74444 3.1579 9.5928 3.09501C9.44115 3.03212 9.2786 2.99975 9.11443 2.99975C8.95026 2.99975 8.78771 3.03212 8.63606 3.09501C8.48442 3.1579 8.34667 3.25007 8.23068 3.36625L4.84068 6.75625C4.36568 7.23125 4.09818 7.88375 4.10818 8.55C4.13693 10.33 4.60818 16.5125 9.48068 21.385C14.3532 26.2575 20.5357 26.7275 22.3169 26.7575H22.3519C23.0119 26.7575 23.6357 26.4975 24.1082 26.025L27.4982 22.635C27.6144 22.519 27.7065 22.3813 27.7694 22.2296C27.8323 22.078 27.8647 21.9154 27.8647 21.7512C27.8647 21.5871 27.8323 21.4245 27.7694 21.2729C27.7065 21.1212 27.6144 20.9835 27.4982 20.8675L22.4982 15.8663ZM22.3394 24.2562C20.7794 24.23 15.4419 23.8112 11.2482 19.6163C7.04068 15.4088 6.63318 10.0525 6.60818 8.52375L9.11443 6.0175L12.3469 9.25L10.7307 10.8663C10.5838 11.0131 10.4757 11.1942 10.4164 11.3932C10.357 11.5922 10.3482 11.8029 10.3907 12.0062C10.4207 12.15 11.1544 15.5587 13.2294 17.6337C15.3044 19.7087 18.7132 20.4425 18.8569 20.4725C19.0601 20.5162 19.271 20.5081 19.4702 20.4489C19.6695 20.3897 19.8506 20.2813 19.9969 20.1337L21.6144 18.5175L24.8469 21.75L22.3394 24.2562V24.2562Z" fill="#3A4062"/>
</svg>
