<svg width="43" height="44" viewBox="0 0 43 44" fill="none" xmlns="http://www.w3.org/2000/svg">
<path d="M35.8765 32.5702L26.3858 19.2093V6.2085H29.0108V3.521H13.2608V6.2085H15.8858V19.2093L6.39509 32.5702C5.82262 33.3757 5.47898 34.3276 5.40219 35.3207C5.3254 36.3138 5.51846 37.3092 5.96 38.1969C6.40154 39.0846 7.07435 39.8299 7.90398 40.3504C8.73361 40.8709 9.68771 41.1463 10.6607 41.146H31.6095C32.5825 41.1463 33.5366 40.8709 34.3663 40.3504C35.1959 39.8299 35.8687 39.0846 36.3102 38.1969C36.7518 37.3092 36.9448 36.3138 36.8681 35.3207C36.7913 34.3276 36.4476 33.3757 35.8752 32.5702H35.8765ZM18.5108 20.0827V6.2085H23.7608V20.0827L27.2691 25.021H15.0025L18.5108 20.0827ZM31.6108 38.4585H10.662C10.1735 38.458 9.69462 38.3192 9.27824 38.0576C8.86186 37.7961 8.52417 37.4218 8.30244 36.9761C8.08072 36.5304 7.98357 36.0307 8.02174 35.5321C8.0599 35.0334 8.23189 34.5553 8.51872 34.1504L13.0941 27.7085H29.1775L33.7542 34.1504C34.041 34.5553 34.213 35.0334 34.2511 35.5321C34.2893 36.0307 34.1922 36.5304 33.9704 36.9761C33.7487 37.4218 33.411 37.7961 32.9946 38.0576C32.5782 38.3192 32.0994 38.458 31.6108 38.4585Z" fill="black"/>
</svg>
