<svg width="21" height="25" viewBox="0 0 21 25" fill="none" xmlns="http://www.w3.org/2000/svg">
<g clip-path="url(#clip0_10_420)">
<path d="M1.11432 17.4823C1.97682 16.5092 3.59066 15.0453 3.59066 10.25C3.59066 6.60781 6.02281 3.69219 9.30227 2.97688V2C9.30227 1.17172 9.94156 0.5 10.7299 0.5C11.5183 0.5 12.1576 1.17172 12.1576 2V2.97688C15.4371 3.69219 17.8692 6.60781 17.8692 10.25C17.8692 15.0453 19.4831 16.5092 20.3456 17.4823C20.6134 17.7847 20.7322 18.1461 20.7299 18.5C20.725 19.2687 20.1505 20 19.2969 20H2.16298C1.30941 20 0.734413 19.2687 0.729949 18.5C0.727717 18.1461 0.846466 17.7842 1.11432 17.4823V17.4823ZM17.7152 17.75C16.7679 16.4389 15.7322 14.2658 15.7273 10.2772C15.7273 10.2678 15.7299 10.2594 15.7299 10.25C15.7299 7.35031 13.4916 5 10.7299 5C7.96834 5 5.72995 7.35031 5.72995 10.25C5.72995 10.2594 5.73263 10.2678 5.73263 10.2772C5.72772 14.2663 4.692 16.4394 3.74468 17.75H17.7152ZM10.7299 24.5C9.15316 24.5 7.87415 23.157 7.87415 21.5H13.5858C13.5858 23.157 12.3067 24.5 10.7299 24.5Z" fill="#3A4062"/>
</g>
<defs>
<clipPath id="clip0_10_420">
<rect width="20" height="24" fill="white" transform="matrix(-1 0 0 1 20.7297 0.5)"/>
</clipPath>
</defs>
</svg>
