<svg width="29" height="29" viewBox="0 0 29 29" fill="none" xmlns="http://www.w3.org/2000/svg">
<path d="M15.3297 2.70851C15.0048 2.40132 14.5746 2.23016 14.1274 2.23016C13.6803 2.23016 13.2501 2.40132 12.9252 2.70851L4.44819 10.72C4.18864 10.9656 3.98196 11.2617 3.84083 11.59C3.6997 11.9183 3.62709 12.2719 3.62744 12.6293V22.3768C3.62791 23.0727 3.90467 23.7399 4.39691 24.2318C4.88914 24.7237 5.55655 25 6.25244 25H8.87744C9.57364 25 10.2413 24.7235 10.7336 24.2312C11.2259 23.7389 11.5024 23.0712 11.5024 22.375V18C11.5024 17.7679 11.5946 17.5454 11.7587 17.3813C11.9228 17.2172 12.1454 17.125 12.3774 17.125H15.8774C16.1095 17.125 16.3321 17.2172 16.4962 17.3813C16.6603 17.5454 16.7524 17.7679 16.7524 18V22.375C16.7524 23.0712 17.029 23.7389 17.5213 24.2312C18.0136 24.7235 18.6812 25 19.3774 25H22.0024C22.6986 25 23.3663 24.7235 23.8586 24.2312C24.3509 23.7389 24.6274 23.0712 24.6274 22.375V12.6275C24.6273 12.2703 24.5543 11.9169 24.4129 11.5889C24.2715 11.261 24.0646 10.9653 23.8049 10.72L15.3297 2.70501V2.70851Z" fill="#0E0E0E" fill-opacity="0.6"/>
</svg>
