<svg width="29" height="29" viewBox="0 0 29 29" fill="none" xmlns="http://www.w3.org/2000/svg">
<path d="M15.8124 2.95845C15.4874 2.65126 15.0573 2.4801 14.6101 2.4801C14.163 2.4801 13.7328 2.65126 13.4079 2.95845L4.93086 10.97C4.6713 11.2156 4.46463 11.5116 4.3235 11.8399C4.18237 12.1682 4.10975 12.5219 4.11011 12.8792V22.6267C4.11057 23.3226 4.38734 23.9898 4.87957 24.4817C5.3718 24.9736 6.03922 25.25 6.73511 25.25H9.36011C10.0563 25.25 10.724 24.9734 11.2163 24.4811C11.7085 23.9888 11.9851 23.3211 11.9851 22.625V18.25C11.9851 18.0179 12.0773 17.7953 12.2414 17.6312C12.4055 17.4671 12.628 17.375 12.8601 17.375H16.3601C16.5922 17.375 16.8147 17.4671 16.9788 17.6312C17.1429 17.7953 17.2351 18.0179 17.2351 18.25V22.625C17.2351 23.3211 17.5117 23.9888 18.004 24.4811C18.4962 24.9734 19.1639 25.25 19.8601 25.25H22.4851C23.1813 25.25 23.849 24.9734 24.3413 24.4811C24.8335 23.9888 25.1101 23.3211 25.1101 22.625V12.8775C25.11 12.5203 25.037 12.1669 24.8956 11.8389C24.7541 11.5109 24.5473 11.2152 24.2876 10.97L15.8124 2.95495V2.95845Z" fill="#90A1F5"/>
</svg>
