<svg width="29" height="29" viewBox="0 0 29 29" fill="none" xmlns="http://www.w3.org/2000/svg">
<path d="M15.4654 2.70851C15.1405 2.40132 14.7103 2.23016 14.2632 2.23016C13.816 2.23016 13.3859 2.40132 13.0609 2.70851L4.58394 10.72C4.32438 10.9656 4.1177 11.2617 3.97657 11.59C3.83544 11.9183 3.76283 12.2719 3.76318 12.6293V22.3768C3.76365 23.0727 4.04042 23.7399 4.53265 24.2318C5.02488 24.7237 5.69229 25 6.38818 25H9.01318C9.70938 25 10.3771 24.7235 10.8693 24.2312C11.3616 23.7389 11.6382 23.0712 11.6382 22.375V18C11.6382 17.7679 11.7304 17.5454 11.8945 17.3813C12.0586 17.2172 12.2811 17.125 12.5132 17.125H16.0132C16.2452 17.125 16.4678 17.2172 16.6319 17.3813C16.796 17.5454 16.8882 17.7679 16.8882 18V22.375C16.8882 23.0712 17.1647 23.7389 17.657 24.2312C18.1493 24.7235 18.817 25 19.5132 25H22.1382C22.8344 25 23.5021 24.7235 23.9943 24.2312C24.4866 23.7389 24.7632 23.0712 24.7632 22.375V12.6275C24.7631 12.2703 24.6901 11.9169 24.5486 11.5889C24.4072 11.261 24.2003 10.9653 23.9407 10.72L15.4654 2.70501V2.70851Z" fill="#0E0E0E" fill-opacity="0.6"/>
</svg>
