<svg width="29" height="29" viewBox="0 0 29 29" fill="none" xmlns="http://www.w3.org/2000/svg">
<path d="M15.6014 2.70851C15.2765 2.40132 14.8463 2.23016 14.3992 2.23016C13.952 2.23016 13.5218 2.40132 13.1969 2.70851L4.71992 10.72C4.46036 10.9656 4.25369 11.2617 4.11256 11.59C3.97143 11.9183 3.89882 12.2719 3.89917 12.6293V22.3768C3.89964 23.0727 4.1764 23.7399 4.66863 24.2318C5.16087 24.7237 5.82828 25 6.52417 25H9.14917C9.84536 25 10.513 24.7235 11.0053 24.2312C11.4976 23.7389 11.7742 23.0712 11.7742 22.375V18C11.7742 17.7679 11.8664 17.5454 12.0305 17.3813C12.1945 17.2172 12.4171 17.125 12.6492 17.125H16.1492C16.3812 17.125 16.6038 17.2172 16.7679 17.3813C16.932 17.5454 17.0242 17.7679 17.0242 18V22.375C17.0242 23.0712 17.3007 23.7389 17.793 24.2312C18.2853 24.7235 18.953 25 19.6492 25H22.2742C22.9704 25 23.638 24.7235 24.1303 24.2312C24.6226 23.7389 24.8992 23.0712 24.8992 22.375V12.6275C24.8991 12.2703 24.8261 11.9169 24.6846 11.5889C24.5432 11.261 24.3363 10.9653 24.0767 10.72L15.6014 2.70501V2.70851Z" fill="#0E0E0E" fill-opacity="0.6"/>
</svg>
