<svg width="29" height="29" viewBox="0 0 29 29" fill="none" xmlns="http://www.w3.org/2000/svg">
<path d="M15.4481 2.95845C15.1232 2.65126 14.693 2.4801 14.2459 2.4801C13.7987 2.4801 13.3685 2.65126 13.0436 2.95845L4.5666 10.97C4.30704 11.2156 4.10037 11.5116 3.95924 11.8399C3.81811 12.1682 3.7455 12.5219 3.74585 12.8792V22.6267C3.74631 23.3226 4.02308 23.9898 4.51531 24.4817C5.00755 24.9736 5.67496 25.25 6.37085 25.25H8.99585C9.69204 25.25 10.3597 24.9734 10.852 24.4811C11.3443 23.9888 11.6209 23.3211 11.6209 22.625V18.25C11.6209 18.0179 11.713 17.7953 11.8771 17.6312C12.0412 17.4671 12.2638 17.375 12.4959 17.375H15.9959C16.2279 17.375 16.4505 17.4671 16.6146 17.6312C16.7787 17.7953 16.8709 18.0179 16.8709 18.25V22.625C16.8709 23.3211 17.1474 23.9888 17.6397 24.4811C18.132 24.9734 18.7997 25.25 19.4959 25.25H22.1209C22.817 25.25 23.4847 24.9734 23.977 24.4811C24.4693 23.9888 24.7459 23.3211 24.7459 22.625V12.8775C24.7457 12.5203 24.6727 12.1669 24.5313 11.8389C24.3899 11.5109 24.183 11.2152 23.9234 10.97L15.4481 2.95495V2.95845Z" fill="#90A1F5"/>
</svg>
