<svg width="31" height="31" viewBox="0 0 31 31" fill="none" xmlns="http://www.w3.org/2000/svg">
<path fill-rule="evenodd" clip-rule="evenodd" d="M20.7368 11.75C20.7368 13.0761 20.21 14.3479 19.2724 15.2855C18.3347 16.2232 17.0629 16.75 15.7368 16.75C14.4107 16.75 13.139 16.2232 12.2013 15.2855C11.2636 14.3479 10.7368 13.0761 10.7368 11.75C10.7368 10.4239 11.2636 9.15215 12.2013 8.21447C13.139 7.27678 14.4107 6.75 15.7368 6.75C17.0629 6.75 18.3347 7.27678 19.2724 8.21447C20.21 9.15215 20.7368 10.4239 20.7368 11.75V11.75ZM18.2368 11.75C18.2368 12.413 17.9734 13.0489 17.5046 13.5178C17.0357 13.9866 16.3999 14.25 15.7368 14.25C15.0738 14.25 14.4379 13.9866 13.969 13.5178C13.5002 13.0489 13.2368 12.413 13.2368 11.75C13.2368 11.087 13.5002 10.4511 13.969 9.98223C14.4379 9.51339 15.0738 9.25 15.7368 9.25C16.3999 9.25 17.0357 9.51339 17.5046 9.98223C17.9734 10.4511 18.2368 11.087 18.2368 11.75V11.75Z" fill="#0E0E0E" fill-opacity="0.6"/>
<path fill-rule="evenodd" clip-rule="evenodd" d="M15.7368 1.75C8.14307 1.75 1.98682 7.90625 1.98682 15.5C1.98682 23.0937 8.14307 29.25 15.7368 29.25C23.3306 29.25 29.4868 23.0937 29.4868 15.5C29.4868 7.90625 23.3306 1.75 15.7368 1.75ZM4.48682 15.5C4.48682 18.1125 5.37807 20.5175 6.87182 22.4275C7.92086 21.0499 9.27419 19.9334 10.8261 19.1654C12.378 18.3973 14.0865 17.9985 15.8181 18C17.5272 17.9984 19.2142 18.3869 20.7505 19.136C22.2868 19.885 23.6318 20.9749 24.6831 22.3225C25.7661 20.902 26.4954 19.244 26.8104 17.4857C27.1255 15.7275 27.0174 13.9194 26.4949 12.2112C25.9725 10.503 25.0508 8.94381 23.8062 7.66255C22.5615 6.38128 21.0296 5.41482 19.3373 4.84314C17.645 4.27145 15.8408 4.11096 14.0741 4.37497C12.3075 4.63897 10.6291 5.31986 9.17778 6.36132C7.7265 7.40277 6.54408 8.77484 5.72835 10.364C4.91263 11.9532 4.48704 13.7137 4.48682 15.5V15.5ZM15.7368 26.75C13.1543 26.7539 10.6496 25.8654 8.64682 24.235C9.45298 23.0809 10.526 22.1386 11.7746 21.4884C13.0231 20.8381 14.4103 20.499 15.8181 20.5C17.2083 20.4989 18.5787 20.8295 19.8155 21.4643C21.0523 22.0991 22.1198 23.0198 22.9293 24.15C20.9109 25.8334 18.365 26.7537 15.7368 26.75V26.75Z" fill="#0E0E0E" fill-opacity="0.6"/>
</svg>
