<svg width="31" height="31" viewBox="0 0 31 31" fill="none" xmlns="http://www.w3.org/2000/svg">
<path fill-rule="evenodd" clip-rule="evenodd" d="M20.7195 12C20.7195 13.3261 20.1927 14.5979 19.255 15.5355C18.3173 16.4732 17.0456 17 15.7195 17C14.3934 17 13.1216 16.4732 12.1839 15.5355C11.2463 14.5979 10.7195 13.3261 10.7195 12C10.7195 10.6739 11.2463 9.40215 12.1839 8.46447C13.1216 7.52678 14.3934 7 15.7195 7C17.0456 7 18.3173 7.52678 19.255 8.46447C20.1927 9.40215 20.7195 10.6739 20.7195 12V12ZM18.2195 12C18.2195 12.663 17.9561 13.2989 17.4872 13.7678C17.0184 14.2366 16.3825 14.5 15.7195 14.5C15.0564 14.5 14.4206 14.2366 13.9517 13.7678C13.4829 13.2989 13.2195 12.663 13.2195 12C13.2195 11.337 13.4829 10.7011 13.9517 10.2322C14.4206 9.76339 15.0564 9.5 15.7195 9.5C16.3825 9.5 17.0184 9.76339 17.4872 10.2322C17.9561 10.7011 18.2195 11.337 18.2195 12V12Z" fill="#0E0E0E" fill-opacity="0.6"/>
<path fill-rule="evenodd" clip-rule="evenodd" d="M15.7195 2C8.12573 2 1.96948 8.15625 1.96948 15.75C1.96948 23.3437 8.12573 29.5 15.7195 29.5C23.3132 29.5 29.4695 23.3437 29.4695 15.75C29.4695 8.15625 23.3132 2 15.7195 2ZM4.46948 15.75C4.46948 18.3625 5.36073 20.7675 6.85448 22.6775C7.90352 21.2999 9.25686 20.1834 10.8088 19.4154C12.3607 18.6473 14.0692 18.2485 15.8007 18.25C17.5099 18.2484 19.1969 18.6369 20.7331 19.386C22.2694 20.135 23.6144 21.2249 24.6657 22.5725C25.7488 21.152 26.478 19.494 26.7931 17.7357C27.1082 15.9775 27 14.1694 26.4776 12.4612C25.9552 10.753 25.0335 9.19381 23.7888 7.91255C22.5442 6.63128 21.0123 5.66482 19.32 5.09314C17.6276 4.52145 15.8235 4.36096 14.0568 4.62497C12.2901 4.88897 10.6117 5.56986 9.16044 6.61132C7.70917 7.65277 6.52675 9.02484 5.71102 10.614C4.89529 12.2032 4.46971 13.9637 4.46948 15.75V15.75ZM15.7195 27C13.1369 27.0039 10.6323 26.1154 8.62948 24.485C9.43565 23.3309 10.5087 22.3886 11.7572 21.7384C13.0058 21.0881 14.393 20.749 15.8007 20.75C17.1909 20.7489 18.5613 21.0795 19.7981 21.7143C21.0349 22.3491 22.1024 23.2698 22.912 24.4C20.8936 26.0834 18.3477 27.0037 15.7195 27V27Z" fill="#0E0E0E" fill-opacity="0.6"/>
</svg>
