<svg width="31" height="31" viewBox="0 0 31 31" fill="none" xmlns="http://www.w3.org/2000/svg">
<path fill-rule="evenodd" clip-rule="evenodd" d="M20.0837 12C20.0837 13.3261 19.557 14.5979 18.6193 15.5355C17.6816 16.4732 16.4098 17 15.0837 17C13.7577 17 12.4859 16.4732 11.5482 15.5355C10.6105 14.5979 10.0837 13.3261 10.0837 12C10.0837 10.6739 10.6105 9.40215 11.5482 8.46447C12.4859 7.52678 13.7577 7 15.0837 7C16.4098 7 17.6816 7.52678 18.6193 8.46447C19.557 9.40215 20.0837 10.6739 20.0837 12V12ZM17.5837 12C17.5837 12.663 17.3203 13.2989 16.8515 13.7678C16.3827 14.2366 15.7468 14.5 15.0837 14.5C14.4207 14.5 13.7848 14.2366 13.316 13.7678C12.8471 13.2989 12.5837 12.663 12.5837 12C12.5837 11.337 12.8471 10.7011 13.316 10.2322C13.7848 9.76339 14.4207 9.5 15.0837 9.5C15.7468 9.5 16.3827 9.76339 16.8515 10.2322C17.3203 10.7011 17.5837 11.337 17.5837 12V12Z" fill="#0E0E0E" fill-opacity="0.6"/>
<path fill-rule="evenodd" clip-rule="evenodd" d="M15.0837 2C7.48999 2 1.33374 8.15625 1.33374 15.75C1.33374 23.3437 7.48999 29.5 15.0837 29.5C22.6775 29.5 28.8337 23.3437 28.8337 15.75C28.8337 8.15625 22.6775 2 15.0837 2ZM3.83374 15.75C3.83374 18.3625 4.72499 20.7675 6.21874 22.6775C7.26778 21.2999 8.62112 20.1834 10.173 19.4154C11.7249 18.6473 13.4334 18.2485 15.165 18.25C16.8742 18.2484 18.5611 18.6369 20.0974 19.386C21.6337 20.135 22.9787 21.2249 24.03 22.5725C25.113 21.152 25.8423 19.494 26.1574 17.7357C26.4724 15.9775 26.3643 14.1694 25.8419 12.4612C25.3194 10.753 24.3978 9.19381 23.1531 7.91255C21.9084 6.63128 20.3766 5.66482 18.6842 5.09314C16.9919 4.52145 15.1877 4.36096 13.4211 4.62497C11.6544 4.88897 9.97598 5.56986 8.5247 6.61132C7.07342 7.65277 5.891 9.02484 5.07528 10.614C4.25955 12.2032 3.83397 13.9637 3.83374 15.75V15.75ZM15.0837 27C12.5012 27.0039 9.99657 26.1154 7.99374 24.485C8.7999 23.3309 9.87291 22.3886 11.1215 21.7384C12.37 21.0881 13.7572 20.749 15.165 20.75C16.5552 20.7489 17.9256 21.0795 19.1624 21.7143C20.3992 22.3491 21.4667 23.2698 22.2762 24.4C20.2579 26.0834 17.712 27.0037 15.0837 27V27Z" fill="#0E0E0E" fill-opacity="0.6"/>
</svg>
