<svg width="31" height="31" viewBox="0 0 31 31" fill="none" xmlns="http://www.w3.org/2000/svg">
<path fill-rule="evenodd" clip-rule="evenodd" d="M20.6011 11.75C20.6011 13.0761 20.0743 14.3479 19.1366 15.2855C18.1989 16.2232 16.9272 16.75 15.6011 16.75C14.275 16.75 13.0032 16.2232 12.0655 15.2855C11.1279 14.3479 10.6011 13.0761 10.6011 11.75C10.6011 10.4239 11.1279 9.15215 12.0655 8.21447C13.0032 7.27678 14.275 6.75 15.6011 6.75C16.9272 6.75 18.1989 7.27678 19.1366 8.21447C20.0743 9.15215 20.6011 10.4239 20.6011 11.75V11.75ZM18.1011 11.75C18.1011 12.413 17.8377 13.0489 17.3688 13.5178C16.9 13.9866 16.2641 14.25 15.6011 14.25C14.938 14.25 14.3021 13.9866 13.8333 13.5178C13.3645 13.0489 13.1011 12.413 13.1011 11.75C13.1011 11.087 13.3645 10.4511 13.8333 9.98223C14.3021 9.51339 14.938 9.25 15.6011 9.25C16.2641 9.25 16.9 9.51339 17.3688 9.98223C17.8377 10.4511 18.1011 11.087 18.1011 11.75V11.75Z" fill="#0E0E0E" fill-opacity="0.6"/>
<path fill-rule="evenodd" clip-rule="evenodd" d="M15.6011 1.75C8.00732 1.75 1.85107 7.90625 1.85107 15.5C1.85107 23.0937 8.00732 29.25 15.6011 29.25C23.1948 29.25 29.3511 23.0937 29.3511 15.5C29.3511 7.90625 23.1948 1.75 15.6011 1.75ZM4.35107 15.5C4.35107 18.1125 5.24232 20.5175 6.73607 22.4275C7.78511 21.0499 9.13845 19.9334 10.6904 19.1654C12.2423 18.3973 13.9508 17.9985 15.6823 18C17.3915 17.9984 19.0785 18.3869 20.6147 19.136C22.151 19.885 23.496 20.9749 24.5473 22.3225C25.6304 20.902 26.3596 19.244 26.6747 17.4857C26.9898 15.7275 26.8816 13.9194 26.3592 12.2112C25.8368 10.503 24.9151 8.94381 23.6704 7.66255C22.4258 6.38128 20.8939 5.41482 19.2016 4.84314C17.5092 4.27145 15.7051 4.11096 13.9384 4.37497C12.1717 4.63897 10.4933 5.31986 9.04204 6.36132C7.59076 7.40277 6.40834 8.77484 5.59261 10.364C4.77688 11.9532 4.3513 13.7137 4.35107 15.5V15.5ZM15.6011 26.75C13.0185 26.7539 10.5139 25.8654 8.51107 24.235C9.31724 23.0809 10.3902 22.1386 11.6388 21.4884C12.8874 20.8381 14.2746 20.499 15.6823 20.5C17.0725 20.4989 18.4429 20.8295 19.6797 21.4643C20.9165 22.0991 21.984 23.0198 22.7936 24.15C20.7752 25.8334 18.2293 26.7537 15.6011 26.75V26.75Z" fill="#0E0E0E" fill-opacity="0.6"/>
</svg>
