<svg width="31" height="31" viewBox="0 0 31 31" fill="none" xmlns="http://www.w3.org/2000/svg">
<path fill-rule="evenodd" clip-rule="evenodd" d="M20.8728 11.75C20.8728 13.0761 20.346 14.3479 19.4083 15.2855C18.4707 16.2232 17.1989 16.75 15.8728 16.75C14.5467 16.75 13.275 16.2232 12.3373 15.2855C11.3996 14.3479 10.8728 13.0761 10.8728 11.75C10.8728 10.4239 11.3996 9.15215 12.3373 8.21447C13.275 7.27678 14.5467 6.75 15.8728 6.75C17.1989 6.75 18.4707 7.27678 19.4083 8.21447C20.346 9.15215 20.8728 10.4239 20.8728 11.75V11.75ZM18.3728 11.75C18.3728 12.413 18.1094 13.0489 17.6406 13.5178C17.1717 13.9866 16.5358 14.25 15.8728 14.25C15.2098 14.25 14.5739 13.9866 14.105 13.5178C13.6362 13.0489 13.3728 12.413 13.3728 11.75C13.3728 11.087 13.6362 10.4511 14.105 9.98223C14.5739 9.51339 15.2098 9.25 15.8728 9.25C16.5358 9.25 17.1717 9.51339 17.6406 9.98223C18.1094 10.4511 18.3728 11.087 18.3728 11.75V11.75Z" fill="#0E0E0E" fill-opacity="0.6"/>
<path fill-rule="evenodd" clip-rule="evenodd" d="M15.8728 1.75C8.27905 1.75 2.1228 7.90625 2.1228 15.5C2.1228 23.0937 8.27905 29.25 15.8728 29.25C23.4666 29.25 29.6228 23.0937 29.6228 15.5C29.6228 7.90625 23.4666 1.75 15.8728 1.75ZM4.6228 15.5C4.6228 18.1125 5.51405 20.5175 7.0078 22.4275C8.05684 21.0499 9.41018 19.9334 10.9621 19.1654C12.514 18.3973 14.2225 17.9985 15.9541 18C17.6632 17.9984 19.3502 18.3869 20.8865 19.136C22.4227 19.885 23.7678 20.9749 24.8191 22.3225C25.9021 20.902 26.6313 19.244 26.9464 17.4857C27.2615 15.7275 27.1533 13.9194 26.6309 12.2112C26.1085 10.503 25.1868 8.94381 23.9422 7.66255C22.6975 6.38128 21.1656 5.41482 19.4733 4.84314C17.7809 4.27145 15.9768 4.11096 14.2101 4.37497C12.4435 4.63897 10.765 5.31986 9.31376 6.36132C7.86249 7.40277 6.68007 8.77484 5.86434 10.364C5.04861 11.9532 4.62303 13.7137 4.6228 15.5V15.5ZM15.8728 26.75C13.2902 26.7539 10.7856 25.8654 8.7828 24.235C9.58897 23.0809 10.662 22.1386 11.9105 21.4884C13.1591 20.8381 14.5463 20.499 15.9541 20.5C17.3443 20.4989 18.7147 20.8295 19.9515 21.4643C21.1883 22.0991 22.2558 23.0198 23.0653 24.15C21.0469 25.8334 18.501 26.7537 15.8728 26.75V26.75Z" fill="#0E0E0E" fill-opacity="0.6"/>
</svg>
