<svg width="46" height="43" viewBox="0 0 46 43" fill="none" xmlns="http://www.w3.org/2000/svg">
<path d="M33.6236 11.477C37.2775 12.9444 41.387 13.058 45.1263 11.7949M12.9863 42.0001C14.3291 38.4748 14.2083 34.6034 12.648 31.1581C11.4267 28.4148 11.0963 25.3933 11.6983 22.4739C12.3003 19.5545 13.8079 16.8678 16.0312 14.7519C18.3103 12.6321 21.2062 11.1939 24.3537 10.6185" stroke="#E6EDFD" stroke-linecap="round" stroke-linejoin="round"/>
<path d="M21.7825 32.0484C24.9454 31.4682 27.8537 30.0186 30.1389 27.8832M30.1389 27.8832C32.3661 25.7696 33.8763 23.0827 34.4785 20.1624C35.0807 17.2421 34.7479 14.2196 33.5221 11.477C31.9936 8.03096 31.909 4.16902 33.2853 0.666748M30.1389 27.8832L16.1665 14.7519M1.14526 30.872C4.8862 29.6029 9.00218 29.728 12.648 31.2217" stroke="#E6EDFD" stroke-linecap="round" stroke-linejoin="round"/>
</svg>
