<svg width="42" height="41" viewBox="0 0 42 41" fill="none" xmlns="http://www.w3.org/2000/svg">
<g clip-path="url(#clip0_22_991)">
<path d="M25.9894 11.9583C25.9894 11.5053 26.1694 11.0707 26.4898 10.7504C26.8102 10.43 27.2447 10.25 27.6978 10.25C28.1508 10.25 28.5854 10.43 28.9057 10.7504C29.2261 11.0707 29.4061 11.5053 29.4061 11.9583V29.0417C29.4061 29.4947 29.2261 29.9293 28.9057 30.2496C28.5854 30.57 28.1508 30.75 27.6978 30.75C27.2447 30.75 26.8102 30.57 26.4898 30.2496C26.1694 29.9293 25.9894 29.4947 25.9894 29.0417V11.9583ZM12.3228 11.9583C12.3228 11.5053 12.5027 11.0707 12.8231 10.7504C13.1435 10.43 13.578 10.25 14.0311 10.25C14.4842 10.25 14.9187 10.43 15.2391 10.7504C15.5594 11.0707 15.7394 11.5053 15.7394 11.9583V29.0417C15.7394 29.4947 15.5594 29.9293 15.2391 30.2496C14.9187 30.57 14.4842 30.75 14.0311 30.75C13.578 30.75 13.1435 30.57 12.8231 30.2496C12.5027 29.9293 12.3228 29.4947 12.3228 29.0417V11.9583Z" fill="white"/>
</g>
<defs>
<clipPath id="clip0_22_991">
<rect width="41" height="41" fill="white" transform="translate(0.364258)"/>
</clipPath>
</defs>
</svg>
