<svg width="28" height="33" viewBox="0 0 28 33" fill="none" xmlns="http://www.w3.org/2000/svg">
<path d="M9.74426 23.6863V17.0383L8.36426 17.3623V16.1863L10.3923 15.2863H11.3403V23.6863H9.74426Z" fill="#FCFCFF"/>
<path d="M16.413 23.8303C15.637 23.8303 14.973 23.6503 14.421 23.2903C13.869 22.9223 13.441 22.4143 13.137 21.7663C12.841 21.1103 12.693 20.3503 12.693 19.4863C12.693 18.6303 12.841 17.8743 13.137 17.2183C13.441 16.5623 13.869 16.0543 14.421 15.6943C14.973 15.3263 15.637 15.1423 16.413 15.1423C17.189 15.1423 17.853 15.3263 18.405 15.6943C18.957 16.0543 19.381 16.5623 19.677 17.2183C19.981 17.8743 20.133 18.6303 20.133 19.4863C20.133 20.3503 19.981 21.1103 19.677 21.7663C19.381 22.4143 18.957 22.9223 18.405 23.2903C17.853 23.6503 17.189 23.8303 16.413 23.8303ZM16.413 22.4503C17.045 22.4503 17.561 22.1863 17.961 21.6583C18.361 21.1303 18.561 20.4063 18.561 19.4863C18.561 18.5663 18.361 17.8423 17.961 17.3143C17.561 16.7863 17.045 16.5223 16.413 16.5223C15.773 16.5223 15.253 16.7863 14.853 17.3143C14.461 17.8423 14.265 18.5663 14.265 19.4863C14.265 20.4063 14.461 21.1303 14.853 21.6583C15.253 22.1863 15.773 22.4503 16.413 22.4503Z" fill="#FCFCFF"/>
<path d="M17.8643 6.79599C16.6084 6.37209 15.2632 6.1423 13.8643 6.1423C6.9607 6.1423 1.36426 11.7387 1.36426 18.6423C1.36426 25.5459 6.9607 31.1423 13.8643 31.1423C20.7678 31.1423 26.3643 25.5459 26.3643 18.6423C26.3643 16.6687 25.9069 14.802 25.0924 13.1423" stroke="#FCFCFF" stroke-width="2" stroke-linecap="round" stroke-linejoin="round"/>
<path d="M16.8573 1.8577L20.193 7.63538L14.4153 10.9711" stroke="#FCFCFF" stroke-width="2" stroke-linecap="round" stroke-linejoin="round"/>
</svg>
