<svg width="32" height="30" viewBox="0 0 32 30" fill="none" xmlns="http://www.w3.org/2000/svg">
<path d="M23.2349 8.46367C25.7144 9.44906 28.503 9.52534 31.0404 8.67717M9.23097 28.9603C10.1421 26.593 10.0602 23.9933 9.0014 21.6797C8.17268 19.8376 7.94846 17.8086 8.35697 15.8482C8.76548 13.8878 9.78846 12.0836 11.2971 10.6628C12.8437 9.23933 14.8088 8.27355 16.9446 7.8872" stroke="#3A4062" stroke-linecap="round" stroke-linejoin="round"/>
<path d="M15.2 22.2775C17.3462 21.888 19.3198 20.9145 20.8704 19.4806M20.8704 19.4806C22.3817 18.0613 23.4065 16.257 23.8152 14.296C24.2238 12.335 23.9979 10.3053 23.1662 8.46366C22.129 6.14959 22.0716 3.55625 23.0055 1.20444M20.8704 19.4806L11.3891 10.6628M1.19604 21.4876C3.73455 20.6354 6.52755 20.7194 9.00153 21.7224" stroke="#3A4062" stroke-linecap="round" stroke-linejoin="round"/>
</svg>
