<svg width="22" height="24" viewBox="0 0 22 24" fill="none" xmlns="http://www.w3.org/2000/svg">
<path d="M12.4481 0.958452C12.1232 0.651263 11.693 0.480103 11.2459 0.480103C10.7987 0.480103 10.3685 0.651263 10.0436 0.958452L1.5666 8.96995C1.30704 9.21557 1.10037 9.5116 0.959239 9.8399C0.818109 10.1682 0.745497 10.5219 0.745851 10.8792V20.6267C0.746315 21.3226 1.02308 21.9898 1.51531 22.4817C2.00755 22.9736 2.67496 23.25 3.37085 23.25H5.99585C6.69204 23.25 7.35972 22.9734 7.85201 22.4811C8.34429 21.9888 8.62085 21.3211 8.62085 20.625V16.25C8.62085 16.0179 8.71304 15.7953 8.87713 15.6312C9.04123 15.4671 9.26379 15.375 9.49585 15.375H12.9959C13.2279 15.375 13.4505 15.4671 13.6146 15.6312C13.7787 15.7953 13.8709 16.0179 13.8709 16.25V20.625C13.8709 21.3211 14.1474 21.9888 14.6397 22.4811C15.132 22.9734 15.7997 23.25 16.4959 23.25H19.1209C19.817 23.25 20.4847 22.9734 20.977 22.4811C21.4693 21.9888 21.7459 21.3211 21.7459 20.625V10.8775C21.7457 10.5203 21.6727 10.1669 21.5313 9.83888C21.3899 9.51089 21.183 9.21522 20.9234 8.96995L12.4481 0.954952V0.958452Z" fill="#90A1F5"/>
</svg>
