<svg width="33" height="33" viewBox="0 0 33 33" fill="none" xmlns="http://www.w3.org/2000/svg">
<path d="M16.3641 3.16667C9.0001 3.16667 3.03076 9.13601 3.03076 16.5C3.03076 23.864 9.0001 29.8333 16.3641 29.8333C23.7281 29.8333 29.6974 23.864 29.6974 16.5C29.6974 9.13601 23.7281 3.16667 16.3641 3.16667Z" stroke="#3A4062" stroke-width="2" stroke-linecap="round" stroke-linejoin="round"/>
<path d="M6.05859 24.9613C6.05859 24.9613 9.03059 21.1667 16.3639 21.1667C23.6973 21.1667 26.6706 24.9613 26.6706 24.9613C26.6706 24.9613 22.9726 29.7177 16.3639 29.7174C9.05957 29.3696 6.05859 24.9613 6.05859 24.9613ZM16.3639 16.5C17.4248 16.5 18.4422 16.0786 19.1924 15.3284C19.9425 14.5783 20.3639 13.5609 20.3639 12.5C20.3639 11.4391 19.9425 10.4217 19.1924 9.67157C18.4422 8.92143 17.4248 8.5 16.3639 8.5C15.3031 8.5 14.2856 8.92143 13.5355 9.67157C12.7854 10.4217 12.3639 11.4391 12.3639 12.5C12.3639 13.5609 12.7854 14.5783 13.5355 15.3284C14.2856 16.0786 15.3031 16.5 16.3639 16.5Z" stroke="#3A4062" stroke-width="2" stroke-linecap="round" stroke-linejoin="round"/>
</svg>
