<svg width="117" height="47" viewBox="0 0 117 47" fill="none" xmlns="http://www.w3.org/2000/svg">
<path d="M58.2144 21.5251C57.9215 21.2322 57.9215 20.7574 58.2144 20.4645C58.5073 20.1716 58.9822 20.1716 59.275 20.4645L61.75 22.9394L64.2249 20.4645C64.5177 20.1716 64.9926 20.1716 65.2855 20.4645C65.5784 20.7573 65.5784 21.2322 65.2855 21.5251L62.8105 24L65.2855 26.4749C65.5784 26.7678 65.5784 27.2427 65.2855 27.5355C64.9926 27.8284 64.5177 27.8284 64.2249 27.5355L61.75 25.0607L59.275 27.5355C58.9822 27.8284 58.5073 27.8284 58.2145 27.5355C57.9215 27.2426 57.9215 26.7678 58.2145 26.4749L60.6893 24.0001L58.2144 21.5251Z" fill="black"/>
<path fill-rule="evenodd" clip-rule="evenodd" d="M55.1213 16.3787L47.5 24L55.1213 31.6213C55.684 32.184 56.447 32.5 57.2427 32.5H67.5C69.1569 32.5 70.5 31.1569 70.5 29.5V18.5C70.5 16.8431 69.1569 15.5 67.5 15.5H57.2427C56.447 15.5 55.684 15.8161 55.1213 16.3787ZM67.5 31.2H57.2427C56.7917 31.2 56.3594 31.0209 56.0405 30.7021L49.3385 24L56.0405 17.2979C56.3594 16.9791 56.7917 16.8 57.2427 16.8H67.5C68.4388 16.8 69.2 17.5611 69.2 18.5V29.5C69.2 30.4389 68.4388 31.2 67.5 31.2Z" fill="black"/>
</svg>
