<svg width="27" height="21" viewBox="0 0 27 21" fill="none" xmlns="http://www.w3.org/2000/svg">
<path d="M15.6095 7.00242C15.6095 6.81267 15.6737 6.61744 15.8021 6.41673C15.9305 6.21601 16.0728 6.08445 16.2288 6.02205C16.8 5.81121 17.3712 5.65309 17.9424 5.54767C18.5136 5.44225 19.1148 5.38954 19.7458 5.38954C20.1398 5.38954 20.529 5.41611 20.9135 5.46924C21.298 5.52237 21.6769 5.59068 22.0504 5.67417C22.2277 5.71634 22.3805 5.82175 22.5089 5.99042C22.6374 6.15909 22.7012 6.34884 22.7004 6.55967C22.7004 6.91809 22.5921 7.18163 22.3754 7.3503C22.1587 7.51897 21.883 7.56113 21.5481 7.4768C21.2724 7.41355 20.982 7.3659 20.6771 7.33385C20.3722 7.30181 20.0618 7.28621 19.7458 7.28705C19.2337 7.28705 18.7314 7.33976 18.239 7.44517C17.7466 7.55059 17.2739 7.68763 16.8208 7.8563C16.4663 8.00388 16.176 7.99334 15.9498 7.82467C15.7237 7.65601 15.6103 7.38192 15.6095 7.00242ZM15.6095 13.9599C15.6095 13.7702 15.6737 13.575 15.8021 13.3742C15.9305 13.1735 16.0731 13.042 16.2299 12.9796C16.8011 12.7687 17.3724 12.6106 17.9436 12.5052C18.5148 12.3998 19.1155 12.3471 19.7458 12.3471C20.1398 12.3471 20.529 12.3736 20.9135 12.4268C21.298 12.4799 21.6769 12.5482 22.0504 12.6317C22.2277 12.6739 22.3805 12.7793 22.5089 12.9479C22.6374 13.1166 22.7012 13.3064 22.7004 13.5172C22.7004 13.8756 22.5921 14.1391 22.3754 14.3078C22.1587 14.4765 21.883 14.5186 21.5481 14.4343C21.2724 14.3711 20.982 14.3234 20.6771 14.2914C20.3722 14.2593 20.0618 14.2437 19.7458 14.2446C19.2337 14.2446 18.7314 14.2922 18.239 14.3875C17.7466 14.4828 17.2739 14.6144 16.8208 14.7822C16.4663 14.9298 16.1756 14.9243 15.9487 14.7657C15.7218 14.6072 15.6087 14.339 15.6095 13.9612V13.9599ZM15.6095 10.4812C15.6095 10.2914 15.6737 10.0962 15.8021 9.89548C15.9305 9.69477 16.0731 9.56321 16.2299 9.5008C16.8011 9.28997 17.3724 9.13184 17.9436 9.02643C18.5148 8.92101 19.1155 8.8683 19.7458 8.8683C20.1398 8.8683 20.529 8.89487 20.9135 8.948C21.298 9.00113 21.6769 9.06944 22.0504 9.15293C22.2277 9.19509 22.3805 9.30051 22.5089 9.46918C22.6374 9.63785 22.7012 9.8276 22.7004 10.0384C22.7004 10.3968 22.5921 10.6604 22.3754 10.8291C22.1587 10.9977 21.883 11.0399 21.5481 10.9556C21.2724 10.8923 20.982 10.8447 20.6771 10.8126C20.3722 10.7806 20.0618 10.765 19.7458 10.7658C19.2337 10.7658 18.7314 10.8185 18.239 10.9239C17.7466 11.0293 17.2739 11.1664 16.8208 11.3351C16.4663 11.4826 16.176 11.4721 15.9498 11.3034C15.7237 11.1348 15.6103 10.8607 15.6095 10.4812ZM6.74585 16.1421C7.6716 16.1421 8.57294 16.253 9.44985 16.4748C10.3268 16.6966 11.1981 17.0284 12.064 17.4703V5.01004C11.2565 4.50404 10.3996 4.12454 9.49357 3.87154C8.58751 3.61854 7.6716 3.49204 6.74585 3.49204C6.03676 3.49204 5.33239 3.56583 4.63276 3.71342C3.93312 3.861 3.2587 4.08238 2.60949 4.37754V16.9011C3.29888 16.6481 3.98355 16.4583 4.66348 16.3318C5.34342 16.2053 6.03754 16.1421 6.74585 16.1421ZM14.4277 17.4703C15.2943 17.0276 16.1657 16.6953 17.0418 16.4735C17.918 16.2517 18.8193 16.1412 19.7458 16.1421C20.4549 16.1421 21.1494 16.2053 21.8294 16.3318C22.5093 16.4583 23.1936 16.6481 23.8822 16.9011V4.37754C23.2322 4.08238 22.5574 3.861 21.8578 3.71342C21.1581 3.56583 20.4541 3.49204 19.7458 3.49204C18.8201 3.49204 17.9042 3.61854 16.9981 3.87154C16.0921 4.12454 15.2352 4.50404 14.4277 5.01004V17.4703ZM13.2458 20.538C12.9701 20.538 12.7089 20.5008 12.4623 20.4266C12.2157 20.3524 11.9845 20.2525 11.7686 20.1268C11.0004 19.6419 10.1928 19.2784 9.34585 19.0364C8.49888 18.7944 7.63221 18.6729 6.74585 18.6721C5.91857 18.6721 5.10588 18.788 4.30776 19.0199C3.50964 19.2519 2.74658 19.5787 2.01858 20.0003C1.60494 20.2322 1.20627 20.2217 0.822577 19.9687C0.43888 19.7157 0.246637 19.3467 0.24585 18.8618V3.61854C0.24585 3.38662 0.300213 3.16525 0.40894 2.95441C0.517668 2.74358 0.679971 2.58546 0.895849 2.48004C1.80191 1.97404 2.74736 1.59454 3.73221 1.34154C4.71706 1.08854 5.72161 0.962036 6.74585 0.962036C7.88827 0.962036 9.00627 1.12016 10.0998 1.43641C11.1934 1.75266 12.2421 2.22704 13.2458 2.85954C14.2504 2.22704 15.2995 1.75266 16.393 1.43641C17.4866 1.12016 18.6042 0.962036 19.7458 0.962036C20.7701 0.962036 21.7746 1.08854 22.7595 1.34154C23.7443 1.59454 24.6898 1.97404 25.5958 2.48004C25.8125 2.58546 25.9752 2.74358 26.0839 2.95441C26.1927 3.16525 26.2466 3.38662 26.2458 3.61854V18.8618C26.2458 19.3467 26.054 19.7157 25.6703 19.9687C25.2866 20.2217 24.8875 20.2322 24.4731 20.0003C23.7443 19.5787 22.9813 19.2519 22.1839 19.0199C21.3866 18.788 20.5739 18.6721 19.7458 18.6721C18.8595 18.6721 17.9928 18.7935 17.1458 19.0364C16.2989 19.2793 15.4913 19.6427 14.7231 20.1268C14.5065 20.2533 14.2748 20.3537 14.0282 20.4279C13.7816 20.5021 13.5208 20.5388 13.2458 20.538Z" fill="#0E0E0E" fill-opacity="0.6"/>
</svg>
