<svg width="49" height="51" viewBox="0 0 49 51" fill="none" xmlns="http://www.w3.org/2000/svg">
<path d="M21.8857 14.396C21.8857 15.0176 21.6487 15.6138 21.2267 16.0533C20.8048 16.4929 20.2325 16.7398 19.6357 16.7398H7.63574C7.03901 16.7398 6.46671 16.4929 6.04475 16.0533C5.6228 15.6138 5.38574 15.0176 5.38574 14.396C5.38574 13.7744 5.6228 13.1783 6.04475 12.7388C6.46671 12.2992 7.03901 12.0523 7.63574 12.0523H19.6357C20.2325 12.0523 20.8048 12.2992 21.2267 12.7388C21.6487 13.1783 21.8857 13.7744 21.8857 14.396ZM19.6357 33.9273H15.8857V30.021C15.8857 29.3994 15.6487 28.8033 15.2267 28.3638C14.8048 27.9242 14.2325 27.6773 13.6357 27.6773C13.039 27.6773 12.4667 27.9242 12.0448 28.3638C11.6228 28.8033 11.3857 29.3994 11.3857 30.021V33.9273H7.63574C7.03901 33.9273 6.46671 34.1742 6.04475 34.6138C5.6228 35.0533 5.38574 35.6494 5.38574 36.271C5.38574 36.8926 5.6228 37.4888 6.04475 37.9283C6.46671 38.3679 7.03901 38.6148 7.63574 38.6148H11.3857V42.521C11.3857 43.1426 11.6228 43.7388 12.0448 44.1783C12.4667 44.6179 13.039 44.8648 13.6357 44.8648C14.2325 44.8648 14.8048 44.6179 15.2267 44.1783C15.6487 43.7388 15.8857 43.1426 15.8857 42.521V38.6148H19.6357C20.2325 38.6148 20.8048 38.3679 21.2267 37.9283C21.6487 37.4888 21.8857 36.8926 21.8857 36.271C21.8857 35.6494 21.6487 35.0533 21.2267 34.6138C20.8048 34.1742 20.2325 33.9273 19.6357 33.9273ZM28.6357 34.7085H40.6357C41.2325 34.7085 41.8048 34.4616 42.2267 34.0221C42.6487 33.5825 42.8857 32.9864 42.8857 32.3648C42.8857 31.7432 42.6487 31.147 42.2267 30.7075C41.8048 30.268 41.2325 30.021 40.6357 30.021H28.6357C28.039 30.021 27.4667 30.268 27.0448 30.7075C26.6228 31.147 26.3857 31.7432 26.3857 32.3648C26.3857 32.9864 26.6228 33.5825 27.0448 34.0221C27.4667 34.4616 28.039 34.7085 28.6357 34.7085ZM40.6357 37.8335H28.6357C28.039 37.8335 27.4667 38.0805 27.0448 38.52C26.6228 38.9595 26.3857 39.5557 26.3857 40.1773C26.3857 40.7989 26.6228 41.395 27.0448 41.8346C27.4667 42.2741 28.039 42.521 28.6357 42.521H40.6357C41.2325 42.521 41.8048 42.2741 42.2267 41.8346C42.6487 41.395 42.8857 40.7989 42.8857 40.1773C42.8857 39.5557 42.6487 38.9595 42.2267 38.52C41.8048 38.0805 41.2325 37.8335 40.6357 37.8335ZM28.5439 20.7417C28.7529 20.9602 29.0013 21.1336 29.2748 21.2519C29.5483 21.3702 29.8415 21.4311 30.1376 21.4311C30.4337 21.4311 30.727 21.3702 31.0005 21.2519C31.2739 21.1336 31.5223 20.9602 31.7314 20.7417L34.6357 17.7163L37.5439 20.7476C37.9666 21.1879 38.5398 21.4353 39.1376 21.4353C39.7354 21.4353 40.3087 21.1879 40.7314 20.7476C41.1541 20.3073 41.3915 19.7101 41.3915 19.0874C41.3915 18.4648 41.1541 17.8676 40.7314 17.4273L37.8232 14.396L40.7332 11.3667C41.1559 10.9264 41.3934 10.3293 41.3934 9.70658C41.3934 9.0839 41.1559 8.48672 40.7332 8.04642C40.3106 7.60612 39.7373 7.35876 39.1395 7.35876C38.5417 7.35876 37.9684 7.60612 37.5457 8.04642L34.6357 11.0757L31.7276 8.05033C31.3049 7.61003 30.7316 7.36267 30.1339 7.36267C29.5361 7.36267 28.9628 7.61003 28.5401 8.05033C28.1174 8.49063 27.88 9.08781 27.88 9.71049C27.88 10.3332 28.1174 10.9303 28.5401 11.3706L31.4482 14.396L28.5439 17.4253C28.3347 17.643 28.1687 17.9015 28.0555 18.186C27.9423 18.4705 27.884 18.7755 27.884 19.0835C27.884 19.3915 27.9423 19.6965 28.0555 19.981C28.1687 20.2656 28.3347 20.5241 28.5439 20.7417Z" fill="#2F3240"/>
</svg>
