<svg width="29" height="28" viewBox="0 0 29 28" fill="none" xmlns="http://www.w3.org/2000/svg">
<path fill-rule="evenodd" clip-rule="evenodd" d="M19.7195 10C19.7195 11.3261 19.1927 12.5979 18.255 13.5355C17.3173 14.4732 16.0456 15 14.7195 15C13.3934 15 12.1216 14.4732 11.1839 13.5355C10.2463 12.5979 9.71948 11.3261 9.71948 10C9.71948 8.67392 10.2463 7.40215 11.1839 6.46447C12.1216 5.52678 13.3934 5 14.7195 5C16.0456 5 17.3173 5.52678 18.255 6.46447C19.1927 7.40215 19.7195 8.67392 19.7195 10ZM17.2195 10C17.2195 10.663 16.9561 11.2989 16.4872 11.7678C16.0184 12.2366 15.3825 12.5 14.7195 12.5C14.0564 12.5 13.4206 12.2366 12.9517 11.7678C12.4829 11.2989 12.2195 10.663 12.2195 10C12.2195 9.33696 12.4829 8.70107 12.9517 8.23223C13.4206 7.76339 14.0564 7.5 14.7195 7.5C15.3825 7.5 16.0184 7.76339 16.4872 8.23223C16.9561 8.70107 17.2195 9.33696 17.2195 10Z" fill="#0E0E0E" fill-opacity="0.6"/>
<path fill-rule="evenodd" clip-rule="evenodd" d="M14.7195 0C7.12573 0 0.969482 6.15625 0.969482 13.75C0.969482 21.3438 7.12573 27.5 14.7195 27.5C22.3132 27.5 28.4695 21.3438 28.4695 13.75C28.4695 6.15625 22.3132 0 14.7195 0ZM3.46948 13.75C3.46948 16.3625 4.36073 18.7675 5.85448 20.6775C6.90352 19.2999 8.25686 18.1834 9.80877 17.4154C11.3607 16.6473 13.0692 16.2485 14.8007 16.25C16.5099 16.2484 18.1969 16.6369 19.7331 17.386C21.2694 18.135 22.6144 19.2249 23.6657 20.5725C24.7488 19.152 25.478 17.494 25.7931 15.7357C26.1082 13.9775 26 12.1694 25.4776 10.4612C24.9552 8.75304 24.0335 7.19381 22.7888 5.91255C21.5442 4.63128 20.0123 3.66482 18.32 3.09314C16.6276 2.52145 14.8235 2.36096 13.0568 2.62497C11.2901 2.88897 9.61172 3.56986 8.16044 4.61132C6.70917 5.65277 5.52675 7.02484 4.71102 8.61399C3.89529 10.2032 3.46971 11.9637 3.46948 13.75ZM14.7195 25C12.1369 25.0039 9.63231 24.1154 7.62948 22.485C8.43565 21.3309 9.50865 20.3886 10.7572 19.7384C12.0058 19.0881 13.393 18.749 14.8007 18.75C16.1909 18.7489 17.5613 19.0795 18.7981 19.7143C20.0349 20.3491 21.1024 21.2698 21.912 22.4C19.8936 24.0834 17.3477 25.0037 14.7195 25Z" fill="#0E0E0E" fill-opacity="0.6"/>
</svg>
