<svg width="68" height="13" viewBox="0 0 68 13" fill="none" xmlns="http://www.w3.org/2000/svg">
<path opacity="0.35" d="M45.5312 1.33301H62.1978C63.3945 1.33301 64.3645 2.30306 64.3645 3.49967V9.49968C64.3645 10.6963 63.3945 11.6663 62.1978 11.6663H45.5312C44.3346 11.6663 43.3645 10.6963 43.3645 9.49967V3.49967C43.3645 2.30306 44.3346 1.33301 45.5312 1.33301Z" stroke="#141414"/>
<path opacity="0.4" d="M65.8645 4.49963V8.49963C66.6692 8.16086 67.1925 7.37277 67.1925 6.49963C67.1925 5.6265 66.6692 4.83841 65.8645 4.49963" fill="#141414"/>
<path d="M44.8645 3.93301C44.8645 3.3255 45.357 2.83301 45.9645 2.83301H61.7645C62.372 2.83301 62.8645 3.32549 62.8645 3.93301V9.06634C62.8645 9.67385 62.372 10.1663 61.7645 10.1663H45.9645C45.357 10.1663 44.8645 9.67385 44.8645 9.06634V3.93301Z" fill="#141414"/>
<path fill-rule="evenodd" clip-rule="evenodd" d="M30.195 3.10789C32.4108 3.10799 34.542 3.95943 36.148 5.48623C36.2689 5.6041 36.4622 5.60261 36.5813 5.48289L37.7373 4.31623C37.7976 4.2555 37.8312 4.17325 37.8307 4.08767C37.8302 4.00209 37.7956 3.92024 37.7346 3.86023C33.5195 -0.17932 26.8697 -0.17932 22.6546 3.86023C22.5936 3.9202 22.5589 4.00202 22.5584 4.0876C22.5578 4.17318 22.5914 4.25546 22.6516 4.31623L23.808 5.48289C23.927 5.6028 24.1204 5.60428 24.2413 5.48623C25.8474 3.95933 27.9788 3.10789 30.195 3.10789ZM30.195 6.90356C31.4124 6.90349 32.5865 7.35602 33.489 8.17323C33.611 8.28921 33.8033 8.28669 33.9223 8.16756L35.077 7.00089C35.1378 6.9397 35.1715 6.85668 35.1706 6.77042C35.1697 6.68415 35.1343 6.60184 35.0723 6.54189C32.3241 3.98551 28.0682 3.98551 25.32 6.54189C25.2579 6.60184 25.2225 6.68419 25.2216 6.77049C25.2208 6.85678 25.2547 6.93979 25.3156 7.00089L26.47 8.16756C26.5889 8.28669 26.7812 8.28921 26.9033 8.17323C27.8052 7.35656 28.9783 6.90406 30.195 6.90356ZM32.5079 9.45738C32.5097 9.54389 32.4757 9.62729 32.414 9.68789L30.4166 11.7036C30.3581 11.7628 30.2782 11.7961 30.195 11.7961C30.1117 11.7961 30.0318 11.7628 29.9733 11.7036L27.9756 9.68789C27.9139 9.62724 27.88 9.54381 27.8818 9.45731C27.8836 9.3708 27.9211 9.28888 27.9853 9.23089C29.2609 8.15201 31.1291 8.15201 32.4046 9.23089C32.4688 9.28893 32.5062 9.37087 32.5079 9.45738Z" fill="#141414"/>
<path fill-rule="evenodd" clip-rule="evenodd" d="M16.5312 1.1665H15.5312C14.979 1.1665 14.5312 1.61422 14.5312 2.1665V10.8332C14.5312 11.3855 14.979 11.8332 15.5312 11.8332H16.5312C17.0835 11.8332 17.5312 11.3855 17.5312 10.8332V2.1665C17.5312 1.61422 17.0835 1.1665 16.5312 1.1665ZM10.8646 3.49984H11.8646C12.4169 3.49984 12.8646 3.94755 12.8646 4.49984V10.8332C12.8646 11.3855 12.4169 11.8332 11.8646 11.8332H10.8646C10.3123 11.8332 9.86458 11.3855 9.86458 10.8332V4.49984C9.86458 3.94755 10.3123 3.49984 10.8646 3.49984ZM7.19792 5.83317H6.19792C5.64563 5.83317 5.19792 6.28089 5.19792 6.83317V10.8332C5.19792 11.3855 5.64563 11.8332 6.19792 11.8332H7.19792C7.7502 11.8332 8.19792 11.3855 8.19792 10.8332V6.83317C8.19792 6.28089 7.7502 5.83317 7.19792 5.83317ZM2.53125 7.83317H1.53125C0.978965 7.83317 0.53125 8.28089 0.53125 8.83317V10.8332C0.53125 11.3855 0.978965 11.8332 1.53125 11.8332H2.53125C3.08353 11.8332 3.53125 11.3855 3.53125 10.8332V8.83317C3.53125 8.28089 3.08353 7.83317 2.53125 7.83317Z" fill="#141414"/>
</svg>
