<svg width="68" height="12" viewBox="0 0 68 12" fill="none" xmlns="http://www.w3.org/2000/svg">
<path opacity="0.35" d="M45.5312 0.833008H62.1978C63.3945 0.833008 64.3645 1.80306 64.3645 2.99967V8.99968C64.3645 10.1963 63.3945 11.1663 62.1978 11.1663H45.5312C44.3346 11.1663 43.3645 10.1963 43.3645 8.99967V2.99967C43.3645 1.80306 44.3346 0.833008 45.5312 0.833008Z" stroke="#141414"/>
<path opacity="0.4" d="M65.8645 3.99968V7.99968C66.6692 7.6609 67.1925 6.87281 67.1925 5.99968C67.1925 5.12655 66.6692 4.33846 65.8645 3.99968" fill="#141414"/>
<path d="M44.8645 3.43301C44.8645 2.8255 45.357 2.33301 45.9645 2.33301H61.7645C62.372 2.33301 62.8645 2.82549 62.8645 3.43301V8.56634C62.8645 9.17385 62.372 9.66634 61.7645 9.66634H45.9645C45.357 9.66634 44.8645 9.17385 44.8645 8.56634V3.43301Z" fill="#141414"/>
<path fill-rule="evenodd" clip-rule="evenodd" d="M30.195 2.60789C32.4108 2.60799 34.542 3.45943 36.148 4.98623C36.2689 5.1041 36.4622 5.10261 36.5813 4.98289L37.7373 3.81623C37.7976 3.7555 37.8312 3.67325 37.8307 3.58767C37.8302 3.50209 37.7956 3.42024 37.7346 3.36023C33.5195 -0.67932 26.8697 -0.67932 22.6546 3.36023C22.5936 3.4202 22.5589 3.50202 22.5584 3.5876C22.5578 3.67318 22.5914 3.75546 22.6516 3.81623L23.808 4.98289C23.927 5.1028 24.1204 5.10428 24.2413 4.98623C25.8474 3.45933 27.9788 2.60789 30.195 2.60789ZM30.195 6.40356C31.4124 6.40349 32.5865 6.85602 33.489 7.67323C33.611 7.78921 33.8033 7.78669 33.9223 7.66756L35.077 6.50089C35.1378 6.4397 35.1715 6.35668 35.1706 6.27042C35.1697 6.18415 35.1343 6.10184 35.0723 6.04189C32.3241 3.48551 28.0682 3.48551 25.32 6.04189C25.2579 6.10184 25.2225 6.18419 25.2216 6.27049C25.2208 6.35678 25.2547 6.43979 25.3156 6.50089L26.47 7.66756C26.5889 7.78669 26.7812 7.78921 26.9033 7.67323C27.8052 6.85656 28.9783 6.40406 30.195 6.40356ZM32.5079 8.95738C32.5097 9.04389 32.4757 9.12729 32.414 9.18789L30.4166 11.2036C30.3581 11.2628 30.2782 11.2961 30.195 11.2961C30.1117 11.2961 30.0318 11.2628 29.9733 11.2036L27.9756 9.18789C27.9139 9.12724 27.88 9.04381 27.8818 8.95731C27.8836 8.8708 27.9211 8.78888 27.9853 8.73089C29.2609 7.65201 31.1291 7.65201 32.4046 8.73089C32.4688 8.78893 32.5062 8.87087 32.5079 8.95738Z" fill="#141414"/>
<path fill-rule="evenodd" clip-rule="evenodd" d="M16.5312 0.666504H15.5312C14.979 0.666504 14.5312 1.11422 14.5312 1.6665V10.3332C14.5312 10.8855 14.979 11.3332 15.5312 11.3332H16.5312C17.0835 11.3332 17.5312 10.8855 17.5312 10.3332V1.6665C17.5312 1.11422 17.0835 0.666504 16.5312 0.666504ZM10.8646 2.99984H11.8646C12.4169 2.99984 12.8646 3.44755 12.8646 3.99984V10.3332C12.8646 10.8855 12.4169 11.3332 11.8646 11.3332H10.8646C10.3123 11.3332 9.86458 10.8855 9.86458 10.3332V3.99984C9.86458 3.44755 10.3123 2.99984 10.8646 2.99984ZM7.19792 5.33317H6.19792C5.64563 5.33317 5.19792 5.78089 5.19792 6.33317V10.3332C5.19792 10.8855 5.64563 11.3332 6.19792 11.3332H7.19792C7.7502 11.3332 8.19792 10.8855 8.19792 10.3332V6.33317C8.19792 5.78089 7.7502 5.33317 7.19792 5.33317ZM2.53125 7.33317H1.53125C0.978965 7.33317 0.53125 7.78089 0.53125 8.33317V10.3332C0.53125 10.8855 0.978965 11.3332 1.53125 11.3332H2.53125C3.08353 11.3332 3.53125 10.8855 3.53125 10.3332V8.33317C3.53125 7.78089 3.08353 7.33317 2.53125 7.33317Z" fill="#141414"/>
</svg>
