<svg width="67" height="13" viewBox="0 0 67 13" fill="none" xmlns="http://www.w3.org/2000/svg">
<path opacity="0.35" d="M45.1669 1.33301H61.8336C63.0302 1.33301 64.0002 2.30306 64.0002 3.49967V9.49968C64.0002 10.6963 63.0302 11.6663 61.8336 11.6663H45.1669C43.9703 11.6663 43.0002 10.6963 43.0002 9.49967V3.49967C43.0002 2.30306 43.9703 1.33301 45.1669 1.33301Z" stroke="#141414"/>
<path opacity="0.4" d="M65.5002 4.49963V8.49963C66.305 8.16086 66.8283 7.37277 66.8283 6.49963C66.8283 5.6265 66.305 4.83841 65.5002 4.49963" fill="#141414"/>
<path d="M44.5002 3.93301C44.5002 3.3255 44.9927 2.83301 45.6002 2.83301H61.4002C62.0078 2.83301 62.5002 3.32549 62.5002 3.93301V9.06634C62.5002 9.67385 62.0078 10.1663 61.4002 10.1663H45.6002C44.9927 10.1663 44.5002 9.67385 44.5002 9.06634V3.93301Z" fill="#141414"/>
<path fill-rule="evenodd" clip-rule="evenodd" d="M29.8307 3.10789C32.0466 3.10799 34.1778 3.95943 35.7837 5.48623C35.9046 5.6041 36.0979 5.60261 36.217 5.48289L37.373 4.31623C37.4333 4.2555 37.467 4.17325 37.4665 4.08767C37.466 4.00209 37.4314 3.92024 37.3704 3.86023C33.1553 -0.17932 26.5055 -0.17932 22.2904 3.86023C22.2293 3.9202 22.1947 4.00202 22.1941 4.0876C22.1935 4.17318 22.2271 4.25546 22.2874 4.31623L23.4437 5.48289C23.5627 5.6028 23.7562 5.60428 23.877 5.48623C25.4832 3.95933 27.6146 3.10789 29.8307 3.10789ZM29.8307 6.90356C31.0482 6.90349 32.2222 7.35602 33.1247 8.17323C33.2468 8.28921 33.439 8.28669 33.558 8.16756L34.7127 7.00089C34.7735 6.9397 34.8072 6.85668 34.8064 6.77042C34.8055 6.68415 34.7701 6.60184 34.708 6.54189C31.9598 3.98551 27.7039 3.98551 24.9557 6.54189C24.8936 6.60184 24.8582 6.68419 24.8574 6.77049C24.8566 6.85678 24.8904 6.93979 24.9514 7.00089L26.1057 8.16756C26.2247 8.28669 26.417 8.28921 26.539 8.17323C27.4409 7.35656 28.614 6.90406 29.8307 6.90356ZM32.1437 9.45738C32.1455 9.54389 32.1115 9.62729 32.0497 9.68789L30.0524 11.7036C29.9938 11.7628 29.914 11.7961 29.8307 11.7961C29.7474 11.7961 29.6676 11.7628 29.609 11.7036L27.6114 9.68789C27.5497 9.62724 27.5157 9.54381 27.5175 9.45731C27.5194 9.3708 27.5568 9.28888 27.621 9.23089C28.8966 8.15201 30.7648 8.15201 32.0404 9.23089C32.1045 9.28893 32.1419 9.37087 32.1437 9.45738Z" fill="#141414"/>
<path fill-rule="evenodd" clip-rule="evenodd" d="M16.167 1.1665H15.167C14.6147 1.1665 14.167 1.61422 14.167 2.1665V10.8332C14.167 11.3855 14.6147 11.8332 15.167 11.8332H16.167C16.7193 11.8332 17.167 11.3855 17.167 10.8332V2.1665C17.167 1.61422 16.7193 1.1665 16.167 1.1665ZM10.5003 3.49984H11.5003C12.0526 3.49984 12.5003 3.94755 12.5003 4.49984V10.8332C12.5003 11.3855 12.0526 11.8332 11.5003 11.8332H10.5003C9.94804 11.8332 9.50033 11.3855 9.50033 10.8332V4.49984C9.50033 3.94755 9.94804 3.49984 10.5003 3.49984ZM6.83366 5.83317H5.83366C5.28137 5.83317 4.83366 6.28089 4.83366 6.83317V10.8332C4.83366 11.3855 5.28137 11.8332 5.83366 11.8332H6.83366C7.38594 11.8332 7.83366 11.3855 7.83366 10.8332V6.83317C7.83366 6.28089 7.38594 5.83317 6.83366 5.83317ZM2.16699 7.83317H1.16699C0.614707 7.83317 0.166992 8.28089 0.166992 8.83317V10.8332C0.166992 11.3855 0.614707 11.8332 1.16699 11.8332H2.16699C2.71928 11.8332 3.16699 11.3855 3.16699 10.8332V8.83317C3.16699 8.28089 2.71928 7.83317 2.16699 7.83317Z" fill="#141414"/>
</svg>
