<svg width="67" height="12" viewBox="0 0 67 12" fill="none" xmlns="http://www.w3.org/2000/svg">
<path opacity="0.35" d="M45.1669 0.833252H61.8336C63.0302 0.833252 64.0002 1.8033 64.0002 2.99992V8.99992C64.0002 10.1965 63.0302 11.1666 61.8336 11.1666H45.1669C43.9703 11.1666 43.0002 10.1965 43.0002 8.99992V2.99992C43.0002 1.8033 43.9703 0.833252 45.1669 0.833252Z" stroke="#141414"/>
<path opacity="0.4" d="M65.5002 3.99988V7.99988C66.305 7.6611 66.8283 6.87301 66.8283 5.99988C66.8283 5.12674 66.305 4.33865 65.5002 3.99988" fill="#141414"/>
<path d="M44.5002 3.43325C44.5002 2.82574 44.9927 2.33325 45.6002 2.33325H61.4002C62.0078 2.33325 62.5002 2.82574 62.5002 3.43325V8.56658C62.5002 9.1741 62.0078 9.66659 61.4002 9.66659H45.6002C44.9927 9.66659 44.5002 9.1741 44.5002 8.56659V3.43325Z" fill="#141414"/>
<path fill-rule="evenodd" clip-rule="evenodd" d="M29.8307 2.60789C32.0466 2.60799 34.1778 3.45943 35.7837 4.98623C35.9046 5.1041 36.0979 5.10261 36.217 4.98289L37.373 3.81623C37.4333 3.7555 37.467 3.67325 37.4665 3.58767C37.466 3.50209 37.4314 3.42024 37.3704 3.36023C33.1553 -0.67932 26.5055 -0.67932 22.2904 3.36023C22.2293 3.4202 22.1947 3.50202 22.1941 3.5876C22.1935 3.67318 22.2271 3.75546 22.2874 3.81623L23.4437 4.98289C23.5627 5.1028 23.7562 5.10428 23.877 4.98623C25.4832 3.45933 27.6146 2.60789 29.8307 2.60789ZM29.8307 6.40356C31.0482 6.40349 32.2222 6.85602 33.1247 7.67323C33.2468 7.78921 33.439 7.78669 33.558 7.66756L34.7127 6.50089C34.7735 6.4397 34.8072 6.35668 34.8064 6.27042C34.8055 6.18415 34.7701 6.10184 34.708 6.04189C31.9598 3.48551 27.7039 3.48551 24.9557 6.04189C24.8936 6.10184 24.8582 6.18419 24.8574 6.27049C24.8566 6.35678 24.8904 6.43979 24.9514 6.50089L26.1057 7.66756C26.2247 7.78669 26.417 7.78921 26.539 7.67323C27.4409 6.85656 28.614 6.40406 29.8307 6.40356ZM32.1437 8.95738C32.1455 9.04389 32.1115 9.12729 32.0497 9.18789L30.0524 11.2036C29.9938 11.2628 29.914 11.2961 29.8307 11.2961C29.7474 11.2961 29.6676 11.2628 29.609 11.2036L27.6114 9.18789C27.5497 9.12724 27.5157 9.04381 27.5175 8.95731C27.5194 8.8708 27.5568 8.78888 27.621 8.73089C28.8966 7.65201 30.7648 7.65201 32.0404 8.73089C32.1045 8.78893 32.1419 8.87087 32.1437 8.95738Z" fill="#141414"/>
<path fill-rule="evenodd" clip-rule="evenodd" d="M16.167 0.666504H15.167C14.6147 0.666504 14.167 1.11422 14.167 1.6665V10.3332C14.167 10.8855 14.6147 11.3332 15.167 11.3332H16.167C16.7193 11.3332 17.167 10.8855 17.167 10.3332V1.6665C17.167 1.11422 16.7193 0.666504 16.167 0.666504ZM10.5003 2.99984H11.5003C12.0526 2.99984 12.5003 3.44755 12.5003 3.99984V10.3332C12.5003 10.8855 12.0526 11.3332 11.5003 11.3332H10.5003C9.94804 11.3332 9.50033 10.8855 9.50033 10.3332V3.99984C9.50033 3.44755 9.94804 2.99984 10.5003 2.99984ZM6.83366 5.33317H5.83366C5.28137 5.33317 4.83366 5.78089 4.83366 6.33317V10.3332C4.83366 10.8855 5.28137 11.3332 5.83366 11.3332H6.83366C7.38594 11.3332 7.83366 10.8855 7.83366 10.3332V6.33317C7.83366 5.78089 7.38594 5.33317 6.83366 5.33317ZM2.16699 7.33317H1.16699C0.614707 7.33317 0.166992 7.78089 0.166992 8.33317V10.3332C0.166992 10.8855 0.614707 11.3332 1.16699 11.3332H2.16699C2.71928 11.3332 3.16699 10.8855 3.16699 10.3332V8.33317C3.16699 7.78089 2.71928 7.33317 2.16699 7.33317Z" fill="#141414"/>
</svg>
