<svg width="68" height="12" viewBox="0 0 68 12" fill="none" xmlns="http://www.w3.org/2000/svg">
<path opacity="0.35" d="M45.8029 0.833008H62.4696C63.6662 0.833008 64.6362 1.80306 64.6362 2.99967V8.99968C64.6362 10.1963 63.6662 11.1663 62.4696 11.1663H45.8029C44.6063 11.1663 43.6362 10.1963 43.6362 8.99967V2.99967C43.6362 1.80306 44.6063 0.833008 45.8029 0.833008Z" stroke="#141414"/>
<path opacity="0.4" d="M66.1362 3.99968V7.99968C66.941 7.6609 67.4643 6.87281 67.4643 5.99968C67.4643 5.12655 66.941 4.33846 66.1362 3.99968" fill="#141414"/>
<path d="M45.1362 3.43301C45.1362 2.8255 45.6287 2.33301 46.2362 2.33301H62.0362C62.6437 2.33301 63.1362 2.82549 63.1362 3.43301V8.56634C63.1362 9.17385 62.6437 9.66634 62.0362 9.66634H46.2362C45.6287 9.66634 45.1362 9.17385 45.1362 8.56634V3.43301Z" fill="#141414"/>
<path fill-rule="evenodd" clip-rule="evenodd" d="M30.4667 2.60789C32.6826 2.60799 34.8137 3.45943 36.4197 4.98623C36.5406 5.1041 36.7339 5.10261 36.853 4.98289L38.009 3.81623C38.0693 3.7555 38.1029 3.67325 38.1024 3.58767C38.1019 3.50209 38.0674 3.42024 38.0064 3.36023C33.7913 -0.67932 27.1414 -0.67932 22.9264 3.36023C22.8653 3.4202 22.8306 3.50202 22.8301 3.5876C22.8295 3.67318 22.8631 3.75546 22.9234 3.81623L24.0797 4.98289C24.1987 5.1028 24.3922 5.10428 24.513 4.98623C26.1192 3.45933 28.2506 2.60789 30.4667 2.60789ZM30.4667 6.40356C31.6842 6.40349 32.8582 6.85602 33.7607 7.67323C33.8827 7.78921 34.075 7.78669 34.194 7.66756L35.3487 6.50089C35.4095 6.4397 35.4432 6.35668 35.4424 6.27042C35.4415 6.18415 35.4061 6.10184 35.344 6.04189C32.5958 3.48551 28.3399 3.48551 25.5917 6.04189C25.5296 6.10184 25.4942 6.18419 25.4934 6.27049C25.4926 6.35678 25.5264 6.43979 25.5874 6.50089L26.7417 7.66756C26.8607 7.78669 27.053 7.78921 27.175 7.67323C28.0769 6.85656 29.25 6.40406 30.4667 6.40356ZM32.7797 8.95738C32.7814 9.04389 32.7474 9.12729 32.6857 9.18789L30.6884 11.2036C30.6298 11.2628 30.55 11.2961 30.4667 11.2961C30.3834 11.2961 30.3036 11.2628 30.245 11.2036L28.2474 9.18789C28.1856 9.12724 28.1517 9.04381 28.1535 8.95731C28.1554 8.8708 28.1928 8.78888 28.257 8.73089C29.5326 7.65201 31.4008 7.65201 32.6764 8.73089C32.7405 8.78893 32.7779 8.87087 32.7797 8.95738Z" fill="#141414"/>
<path fill-rule="evenodd" clip-rule="evenodd" d="M16.803 0.666504H15.803C15.2507 0.666504 14.803 1.11422 14.803 1.6665V10.3332C14.803 10.8855 15.2507 11.3332 15.803 11.3332H16.803C17.3553 11.3332 17.803 10.8855 17.803 10.3332V1.6665C17.803 1.11422 17.3553 0.666504 16.803 0.666504ZM11.1363 2.99984H12.1363C12.6886 2.99984 13.1363 3.44755 13.1363 3.99984V10.3332C13.1363 10.8855 12.6886 11.3332 12.1363 11.3332H11.1363C10.584 11.3332 10.1363 10.8855 10.1363 10.3332V3.99984C10.1363 3.44755 10.584 2.99984 11.1363 2.99984ZM7.46965 5.33317H6.46965C5.91736 5.33317 5.46965 5.78089 5.46965 6.33317V10.3332C5.46965 10.8855 5.91736 11.3332 6.46965 11.3332H7.46965C8.02193 11.3332 8.46965 10.8855 8.46965 10.3332V6.33317C8.46965 5.78089 8.02193 5.33317 7.46965 5.33317ZM2.80298 7.33317H1.80298C1.25069 7.33317 0.802979 7.78089 0.802979 8.33317V10.3332C0.802979 10.8855 1.25069 11.3332 1.80298 11.3332H2.80298C3.35526 11.3332 3.80298 10.8855 3.80298 10.3332V8.33317C3.80298 7.78089 3.35526 7.33317 2.80298 7.33317Z" fill="#141414"/>
</svg>
