<svg width="31" height="31" viewBox="0 0 31 31" fill="none" xmlns="http://www.w3.org/2000/svg">
<g clip-path="url(#clip0_10_3352)">
<path d="M5.36426 23H7.86426V25.5H22.8643V5.5H7.86426V8H5.36426V4.25C5.36426 3.91848 5.49595 3.60054 5.73037 3.36612C5.9648 3.1317 6.28274 3 6.61426 3H24.1143C24.4458 3 24.7637 3.1317 24.9981 3.36612C25.2326 3.60054 25.3643 3.91848 25.3643 4.25V26.75C25.3643 27.0815 25.2326 27.3995 24.9981 27.6339C24.7637 27.8683 24.4458 28 24.1143 28H6.61426C6.28274 28 5.9648 27.8683 5.73037 27.6339C5.49595 27.3995 5.36426 27.0815 5.36426 26.75V23ZM7.86426 14.25H16.6143V16.75H7.86426V20.5L1.61426 15.5L7.86426 10.5V14.25Z" fill="#3A4062"/>
</g>
<defs>
<clipPath id="clip0_10_3352">
<rect width="30" height="30" fill="white" transform="translate(0.364258 0.5)"/>
</clipPath>
</defs>
</svg>
