<svg width="19" height="18" viewBox="0 0 19 18" fill="none" xmlns="http://www.w3.org/2000/svg">
<g opacity="0.4" clip-path="url(#clip0_10_1394)">
<path d="M13.8875 12.4628L17.0998 15.6743L16.0385 16.7355L12.827 13.5233C11.6321 14.4812 10.1458 15.0022 8.61426 15C4.88826 15 1.86426 11.976 1.86426 8.25C1.86426 4.524 4.88826 1.5 8.61426 1.5C12.3403 1.5 15.3643 4.524 15.3643 8.25C15.3664 9.7815 14.8454 11.2678 13.8875 12.4628ZM12.383 11.9062C13.3348 10.9274 13.8664 9.61532 13.8643 8.25C13.8643 5.349 11.5145 3 8.61426 3C5.71326 3 3.36426 5.349 3.36426 8.25C3.36426 11.1503 5.71326 13.5 8.61426 13.5C9.97958 13.5022 11.2917 12.9706 12.2705 12.0187L12.383 11.9062V11.9062Z" fill="black"/>
</g>
<defs>
<clipPath id="clip0_10_1394">
<rect width="18" height="18" fill="white" transform="translate(0.364258)"/>
</clipPath>
</defs>
</svg>
