<svg width="17" height="17" viewBox="0 0 17 17" fill="none" xmlns="http://www.w3.org/2000/svg">
<g clip-path="url(#clip0_23_974)">
<path d="M4.90892 13.5873C4.05827 12.9692 3.36613 12.1584 2.88918 11.2213C2.41223 10.2842 2.16403 9.24746 2.16492 8.19596C2.16492 4.51396 5.14959 1.5293 8.83159 1.5293C12.5136 1.5293 15.4983 4.51396 15.4983 8.19596C15.4991 9.24746 15.2509 10.2842 14.774 11.2213C14.297 12.1584 13.6049 12.9692 12.7543 13.5873L12.0776 12.428C12.9619 11.7497 13.6114 10.8114 13.9351 9.74503C14.2587 8.67862 14.2402 7.53761 13.882 6.48228C13.5239 5.42695 12.8442 4.51032 11.9383 3.86114C11.0325 3.21196 9.94603 2.86285 8.83159 2.86285C7.71714 2.86285 6.6307 3.21196 5.72485 3.86114C4.81901 4.51032 4.13928 5.42695 3.78114 6.48228C3.42301 7.53761 3.40446 8.67862 3.7281 9.74503C4.05175 10.8114 4.70132 11.7497 5.58559 12.428L4.90892 13.5873V13.5873ZM6.26492 11.264C5.63494 10.7369 5.18248 10.0287 4.96902 9.23554C4.75556 8.44239 4.79145 7.60274 5.07182 6.8307C5.35218 6.05865 5.86342 5.39163 6.53608 4.92026C7.20874 4.44889 8.01021 4.19603 8.83159 4.19603C9.65296 4.19603 10.4544 4.44889 11.1271 4.92026C11.7998 5.39163 12.311 6.05865 12.5914 6.8307C12.8717 7.60274 12.9076 8.44239 12.6942 9.23554C12.4807 10.0287 12.0282 10.7369 11.3983 11.264L10.7116 10.0866C11.0861 9.71432 11.3417 9.2392 11.4458 8.72149C11.55 8.20377 11.4981 7.66678 11.2968 7.17859C11.0954 6.69039 10.7536 6.27298 10.3148 5.97926C9.87588 5.68554 9.35968 5.52874 8.83159 5.52874C8.30349 5.52874 7.78729 5.68554 7.34842 5.97926C6.90954 6.27298 6.56776 6.69039 6.36639 7.17859C6.16503 7.66678 6.11314 8.20377 6.21733 8.72149C6.32151 9.2392 6.57706 9.71432 6.95159 10.0866L6.26492 11.264V11.264ZM8.16492 8.86263H9.49825V14.8626H8.16492V8.86263Z" fill="black"/>
</g>
<defs>
<clipPath id="clip0_23_974">
<rect width="16" height="16" fill="white" transform="translate(0.831543 0.196045)"/>
</clipPath>
</defs>
</svg>
