<svg width="40" height="37" viewBox="0 0 40 37" fill="none" xmlns="http://www.w3.org/2000/svg">
<path d="M25.5914 7.32087C27.356 7.32087 28.7997 5.71108 28.7997 3.74356C28.7997 1.77605 27.356 0.16626 25.5914 0.16626C23.8268 0.16626 22.3831 1.77605 22.3831 3.74356C22.3831 5.71108 23.8268 7.32087 25.5914 7.32087ZM8.74764 18.9471C4.25597 18.9471 0.726807 22.8821 0.726807 27.8904C0.726807 32.8986 4.25597 36.8336 8.74764 36.8336C13.2393 36.8336 16.7685 32.8986 16.7685 27.8904C16.7685 22.8821 13.2393 18.9471 8.74764 18.9471ZM8.74764 34.1506C5.69972 34.1506 3.13306 31.2888 3.13306 27.8904C3.13306 24.4919 5.69972 21.6301 8.74764 21.6301C11.7956 21.6301 14.3622 24.4919 14.3622 27.8904C14.3622 31.2888 11.7956 34.1506 8.74764 34.1506ZM18.0518 16.2641L21.9018 11.9714L23.1851 13.4023C25.2706 15.7275 27.9976 17.1585 31.3664 17.1585V13.5811C28.9601 13.5811 27.0351 12.508 25.5914 10.8982L22.5435 7.49973C21.7414 6.78427 20.9393 6.42654 19.9768 6.42654C19.0143 6.42654 18.2122 6.78427 17.731 7.49973L13.2393 12.508C12.5976 13.2234 12.2768 14.1177 12.2768 15.0121C12.2768 16.0853 12.5976 16.9796 13.2393 17.5162L18.3726 22.5244V31.4677H21.581V20.378L18.0518 16.2641ZM31.206 18.9471C26.7143 18.9471 23.1851 22.8821 23.1851 27.8904C23.1851 32.8986 26.7143 36.8336 31.206 36.8336C35.6976 36.8336 39.2268 32.8986 39.2268 27.8904C39.2268 22.8821 35.6976 18.9471 31.206 18.9471ZM31.206 34.1506C28.1581 34.1506 25.5914 31.2888 25.5914 27.8904C25.5914 24.4919 28.1581 21.6301 31.206 21.6301C34.2539 21.6301 36.8206 24.4919 36.8206 27.8904C36.8206 31.2888 34.2539 34.1506 31.206 34.1506Z" fill="black"/>
</svg>
