<svg width="31" height="39" viewBox="0 0 31 39" fill="none" xmlns="http://www.w3.org/2000/svg">
<path d="M30.8765 29.5702L21.3858 16.2093V3.2085H24.0108V0.520996H8.26078V3.2085H10.8858V16.2093L1.39509 29.5702C0.822623 30.3757 0.478982 31.3276 0.402193 32.3207C0.325404 33.3138 0.518461 34.3092 0.960001 35.1969C1.40154 36.0846 2.07435 36.8299 2.90398 37.3504C3.73361 37.8709 4.68771 38.1463 5.66072 38.146H26.6095C27.5825 38.1463 28.5366 37.8709 29.3663 37.3504C30.1959 36.8299 30.8687 36.0846 31.3102 35.1969C31.7518 34.3092 31.9448 33.3138 31.8681 32.3207C31.7913 31.3276 31.4476 30.3757 30.8752 29.5702H30.8765ZM13.5108 17.0827V3.2085H18.7608V17.0827L22.2691 22.021H10.0025L13.5108 17.0827ZM26.6108 35.4585H5.66203C5.17351 35.458 4.69462 35.3192 4.27824 35.0576C3.86186 34.7961 3.52417 34.4218 3.30244 33.9761C3.08072 33.5304 2.98357 33.0307 3.02174 32.5321C3.0599 32.0334 3.23189 31.5553 3.51872 31.1504L8.09409 24.7085H24.1775L28.7542 31.1504C29.041 31.5553 29.213 32.0334 29.2511 32.5321C29.2893 33.0307 29.1922 33.5304 28.9704 33.9761C28.7487 34.4218 28.411 34.7961 27.9946 35.0576C27.5782 35.3192 27.0994 35.458 26.6108 35.4585Z" fill="black"/>
</svg>
