<svg width="8" height="13" viewBox="0 0 8 13" fill="none" xmlns="http://www.w3.org/2000/svg">
<path d="M7.42776 6.49371C7.42776 6.62705 7.40709 6.75205 7.36576 6.86871C7.32443 6.98538 7.25343 7.09371 7.15276 7.19371L2.52776 11.8187C2.34443 12.002 2.11509 12.0894 1.83976 12.0807C1.56443 12.072 1.33543 11.9764 1.15276 11.7937C0.969426 11.6104 0.877759 11.377 0.877759 11.0937C0.877759 10.8104 0.969426 10.577 1.15276 10.3937L5.05276 6.49371L1.12776 2.56871C0.944426 2.38538 0.85676 2.15604 0.86476 1.88071C0.87276 1.60538 0.96876 1.37638 1.15276 1.19371C1.33609 1.01038 1.56943 0.918712 1.85276 0.918712C2.13609 0.918712 2.36943 1.01038 2.55276 1.19371L7.15276 5.79371C7.25276 5.89371 7.32376 6.00205 7.36576 6.11871C7.40776 6.23538 7.42843 6.36038 7.42776 6.49371Z" fill="#0E0E0E" fill-opacity="0.93"/>
</svg>
