<svg width="40" height="37" viewBox="0 0 40 37" fill="none" xmlns="http://www.w3.org/2000/svg">
<path d="M25.7503 7.15436C27.5149 7.15436 28.9587 5.54458 28.9587 3.57706C28.9587 1.60954 27.5149 -0.000244141 25.7503 -0.000244141C23.9857 -0.000244141 22.542 1.60954 22.542 3.57706C22.542 5.54458 23.9857 7.15436 25.7503 7.15436ZM8.90658 18.7806C4.41491 18.7806 0.885742 22.7156 0.885742 27.7239C0.885742 32.7321 4.41491 36.6671 8.90658 36.6671C13.3982 36.6671 16.9274 32.7321 16.9274 27.7239C16.9274 22.7156 13.3982 18.7806 8.90658 18.7806ZM8.90658 33.9841C5.85866 33.9841 3.29199 31.1223 3.29199 27.7239C3.29199 24.3254 5.85866 21.4636 8.90658 21.4636C11.9545 21.4636 14.5212 24.3254 14.5212 27.7239C14.5212 31.1223 11.9545 33.9841 8.90658 33.9841ZM18.2107 16.0976L22.0607 11.8049L23.3441 13.2358C25.4295 15.561 28.1566 16.9919 31.5253 16.9919V13.4146C29.1191 13.4146 27.1941 12.3415 25.7503 10.7317L22.7024 7.33323C21.9003 6.61777 21.0982 6.26004 20.1357 6.26004C19.1732 6.26004 18.3712 6.61777 17.8899 7.33323L13.3982 12.3415C12.7566 13.0569 12.4357 13.9512 12.4357 14.8456C12.4357 15.9188 12.7566 16.8131 13.3982 17.3497L18.5316 22.3579V31.3012H21.7399V20.2115L18.2107 16.0976ZM31.3649 18.7806C26.8732 18.7806 23.3441 22.7156 23.3441 27.7239C23.3441 32.7321 26.8732 36.6671 31.3649 36.6671C35.8566 36.6671 39.3857 32.7321 39.3857 27.7239C39.3857 22.7156 35.8566 18.7806 31.3649 18.7806ZM31.3649 33.9841C28.317 33.9841 25.7503 31.1223 25.7503 27.7239C25.7503 24.3254 28.317 21.4636 31.3649 21.4636C34.4128 21.4636 36.9795 24.3254 36.9795 27.7239C36.9795 31.1223 34.4128 33.9841 31.3649 33.9841Z" fill="black"/>
</svg>
