<svg width="30" height="21" viewBox="0 0 30 21" fill="none" xmlns="http://www.w3.org/2000/svg">
<path d="M15 0C16.14 0 17.2332 0.53405 18.0393 1.48467C18.8454 2.43528 19.2982 3.72459 19.2982 5.06897C19.2982 6.41334 18.8454 7.70265 18.0393 8.65326C17.2332 9.60388 16.14 10.1379 15 10.1379C13.86 10.1379 12.7668 9.60388 11.9607 8.65326C11.1546 7.70265 10.7018 6.41334 10.7018 5.06897C10.7018 3.72459 11.1546 2.43528 11.9607 1.48467C12.7668 0.53405 13.86 0 15 0ZM6.40352 3.62069C7.09124 3.62069 7.72984 3.83793 8.28247 4.22897C8.09826 6.3 8.61405 8.35655 9.67018 9.96414C9.05615 11.3545 7.82808 12.3103 6.40352 12.3103C5.42641 12.3103 4.48932 11.8526 3.7984 11.0378C3.10748 10.223 2.71932 9.11784 2.71932 7.96552C2.71932 6.8132 3.10748 5.70807 3.7984 4.89326C4.48932 4.07845 5.42641 3.62069 6.40352 3.62069ZM23.5965 3.62069C24.5736 3.62069 25.5107 4.07845 26.2016 4.89326C26.8925 5.70807 27.2807 6.8132 27.2807 7.96552C27.2807 9.11784 26.8925 10.223 26.2016 11.0378C25.5107 11.8526 24.5736 12.3103 23.5965 12.3103C22.1719 12.3103 20.9438 11.3545 20.3298 9.96414C21.4005 8.33399 21.8975 6.28001 21.7175 4.22897C22.2702 3.83793 22.9088 3.62069 23.5965 3.62069ZM7.01756 18.4655C7.01756 15.4676 10.5912 13.0345 15 13.0345C19.4088 13.0345 22.9824 15.4676 22.9824 18.4655V21H7.01756V18.4655ZM0.263184 21V18.8276C0.263184 16.8145 2.58423 15.12 5.72809 14.6276C5.00353 15.6124 4.56142 16.9738 4.56142 18.4655V21H0.263184ZM29.7368 21H25.4386V18.4655C25.4386 16.9738 24.9965 15.6124 24.2719 14.6276C27.4158 15.12 29.7368 16.8145 29.7368 18.8276V21Z" fill="#6A6A6A"/>
</svg>
