<svg width="16" height="15" viewBox="0 0 16 15" fill="none" xmlns="http://www.w3.org/2000/svg">
<path d="M6.91072 9.65724H8.40813V11.0954H6.91072V9.65724ZM6.91072 3.9046H8.40813V8.21908H6.91072V3.9046ZM7.65942 0.309204C3.51908 0.309204 0.172363 3.54506 0.172363 7.5C0.172363 9.40712 0.961176 11.2361 2.36527 12.5847C3.06051 13.2524 3.88588 13.7821 4.79425 14.1434C5.70262 14.5048 6.67621 14.6908 7.65942 14.6908C9.64512 14.6908 11.5495 13.9332 12.9536 12.5847C14.3577 11.2361 15.1465 9.40712 15.1465 7.5C15.1465 6.55569 14.9528 5.62063 14.5766 4.7482C14.2003 3.87577 13.6488 3.08307 12.9536 2.41534C12.2583 1.74761 11.433 1.21794 10.5246 0.856571C9.61623 0.4952 8.64264 0.309204 7.65942 0.309204ZM7.65942 13.2526C6.07087 13.2526 4.54738 12.6466 3.4241 11.5677C2.30083 10.4889 1.66978 9.02569 1.66978 7.5C1.66978 5.97431 2.30083 4.5111 3.4241 3.43227C4.54738 2.35344 6.07087 1.74736 7.65942 1.74736C9.24798 1.74736 10.7715 2.35344 11.8947 3.43227C13.018 4.5111 13.6491 5.97431 13.6491 7.5C13.6491 9.02569 13.018 10.4889 11.8947 11.5677C10.7715 12.6466 9.24798 13.2526 7.65942 13.2526Z" fill="#969696"/>
</svg>
