<svg width="30" height="22" viewBox="0 0 30 22" fill="none" xmlns="http://www.w3.org/2000/svg">
<path d="M14.7808 0.5C15.9207 0.5 17.014 1.03405 17.8201 1.98467C18.6262 2.93528 19.079 4.22459 19.079 5.56897C19.079 6.91334 18.6262 8.20265 17.8201 9.15326C17.014 10.1039 15.9207 10.6379 14.7808 10.6379C13.6408 10.6379 12.5475 10.1039 11.7414 9.15326C10.9354 8.20265 10.4825 6.91334 10.4825 5.56897C10.4825 4.22459 10.9354 2.93528 11.7414 1.98467C12.5475 1.03405 13.6408 0.5 14.7808 0.5ZM6.18429 4.12069C6.872 4.12069 7.5106 4.33793 8.06323 4.72897C7.87902 6.8 8.39481 8.85655 9.45095 10.4641C8.83691 11.8545 7.60884 12.8103 6.18429 12.8103C5.20717 12.8103 4.27008 12.3526 3.57916 11.5378C2.88824 10.723 2.50008 9.61784 2.50008 8.46552C2.50008 7.3132 2.88824 6.20807 3.57916 5.39326C4.27008 4.57845 5.20717 4.12069 6.18429 4.12069ZM23.3772 4.12069C24.3543 4.12069 25.2914 4.57845 25.9824 5.39326C26.6733 6.20807 27.0614 7.3132 27.0614 8.46552C27.0614 9.61784 26.6733 10.723 25.9824 11.5378C25.2914 12.3526 24.3543 12.8103 23.3772 12.8103C21.9527 12.8103 20.7246 11.8545 20.1106 10.4641C21.1813 8.83399 21.6783 6.78001 21.4983 4.72897C22.0509 4.33793 22.6895 4.12069 23.3772 4.12069ZM6.79832 18.9655C6.79832 15.9676 10.372 13.5345 14.7808 13.5345C19.1895 13.5345 22.7632 15.9676 22.7632 18.9655V21.5H6.79832V18.9655ZM0.0439453 21.5V19.3276C0.0439453 17.3145 2.36499 15.62 5.50885 15.1276C4.78429 16.1124 4.34218 17.4738 4.34218 18.9655V21.5H0.0439453ZM29.5176 21.5H25.2193V18.9655C25.2193 17.4738 24.7772 16.1124 24.0527 15.1276C27.1965 15.62 29.5176 17.3145 29.5176 19.3276V21.5Z" fill="#6A6A6A"/>
</svg>
