<svg width="8" height="12" viewBox="0 0 8 12" fill="none" xmlns="http://www.w3.org/2000/svg">
<path d="M7.19924 6.11456C7.19924 6.24789 7.17858 6.37289 7.13724 6.48956C7.09591 6.60623 7.02491 6.71456 6.92424 6.81456L2.29924 11.4396C2.11591 11.6229 1.88658 11.7102 1.61124 11.7016C1.33591 11.6929 1.10691 11.5972 0.924244 11.4146C0.740911 11.2312 0.649243 10.9979 0.649243 10.7146C0.649243 10.4312 0.740911 10.1979 0.924244 10.0146L4.82424 6.11456L0.899243 2.18956C0.71591 2.00623 0.628244 1.77689 0.636244 1.50156C0.644244 1.22623 0.740244 0.997229 0.924244 0.814563C1.10758 0.631229 1.34091 0.539561 1.62424 0.539561C1.90758 0.539561 2.14091 0.631229 2.32424 0.814563L6.92424 5.41456C7.02424 5.51456 7.09524 5.62289 7.13724 5.73956C7.17924 5.85623 7.19991 5.98123 7.19924 6.11456Z" fill="#7381C4"/>
</svg>
