<svg width="30" height="22" viewBox="0 0 30 22" fill="none" xmlns="http://www.w3.org/2000/svg">
<path d="M14.8643 0.5C16.0042 0.5 17.0975 1.03405 17.9036 1.98467C18.7096 2.93528 19.1625 4.22459 19.1625 5.56897C19.1625 6.91334 18.7096 8.20265 17.9036 9.15326C17.0975 10.1039 16.0042 10.6379 14.8643 10.6379C13.7243 10.6379 12.631 10.1039 11.8249 9.15326C11.0189 8.20265 10.566 6.91334 10.566 5.56897C10.566 4.22459 11.0189 2.93528 11.8249 1.98467C12.631 1.03405 13.7243 0.5 14.8643 0.5ZM6.26778 4.12069C6.9555 4.12069 7.5941 4.33793 8.14673 4.72897C7.96252 6.8 8.4783 8.85655 9.53444 10.4641C8.92041 11.8545 7.69234 12.8103 6.26778 12.8103C5.29067 12.8103 4.35358 12.3526 3.66266 11.5378C2.97173 10.723 2.58358 9.61784 2.58358 8.46552C2.58358 7.3132 2.97173 6.20807 3.66266 5.39326C4.35358 4.57845 5.29067 4.12069 6.26778 4.12069ZM23.4607 4.12069C24.4378 4.12069 25.3749 4.57845 26.0659 5.39326C26.7568 6.20807 27.1449 7.3132 27.1449 8.46552C27.1449 9.61784 26.7568 10.723 26.0659 11.5378C25.3749 12.3526 24.4378 12.8103 23.4607 12.8103C22.0362 12.8103 20.8081 11.8545 20.1941 10.4641C21.2648 8.83399 21.7618 6.78001 21.5818 4.72897C22.1344 4.33793 22.773 4.12069 23.4607 4.12069ZM6.88182 18.9655C6.88182 15.9676 10.4555 13.5345 14.8643 13.5345C19.273 13.5345 22.8467 15.9676 22.8467 18.9655V21.5H6.88182V18.9655ZM0.127441 21.5V19.3276C0.127441 17.3145 2.44849 15.62 5.59234 15.1276C4.86778 16.1124 4.42568 17.4738 4.42568 18.9655V21.5H0.127441ZM29.6011 21.5H25.3028V18.9655C25.3028 17.4738 24.8607 16.1124 24.1362 15.1276C27.28 15.62 29.6011 17.3145 29.6011 19.3276V21.5Z" fill="#6A6A6A"/>
</svg>
