<svg width="30" height="21" viewBox="0 0 30 21" fill="none" xmlns="http://www.w3.org/2000/svg">
<path d="M15.136 0C16.2759 0 17.3692 0.53405 18.1753 1.48467C18.9814 2.43528 19.4342 3.72459 19.4342 5.06897C19.4342 6.41334 18.9814 7.70265 18.1753 8.65326C17.3692 9.60388 16.2759 10.1379 15.136 10.1379C13.996 10.1379 12.9027 9.60388 12.0967 8.65326C11.2906 7.70265 10.8377 6.41334 10.8377 5.06897C10.8377 3.72459 11.2906 2.43528 12.0967 1.48467C12.9027 0.53405 13.996 0 15.136 0ZM6.53951 3.62069C7.22723 3.62069 7.86582 3.83793 8.41845 4.22897C8.23424 6.3 8.75003 8.35655 9.80617 9.96414C9.19214 11.3545 7.96407 12.3103 6.53951 12.3103C5.5624 12.3103 4.62531 11.8526 3.93438 11.0378C3.24346 10.223 2.85531 9.11784 2.85531 7.96552C2.85531 6.8132 3.24346 5.70807 3.93438 4.89326C4.62531 4.07845 5.5624 3.62069 6.53951 3.62069ZM23.7325 3.62069C24.7096 3.62069 25.6467 4.07845 26.3376 4.89326C27.0285 5.70807 27.4167 6.8132 27.4167 7.96552C27.4167 9.11784 27.0285 10.223 26.3376 11.0378C25.6467 11.8526 24.7096 12.3103 23.7325 12.3103C22.3079 12.3103 21.0798 11.3545 20.4658 9.96414C21.5365 8.33399 22.0335 6.28001 21.8535 4.22897C22.4061 3.83793 23.0447 3.62069 23.7325 3.62069ZM7.15354 18.4655C7.15354 15.4676 10.7272 13.0345 15.136 13.0345C19.5447 13.0345 23.1184 15.4676 23.1184 18.4655V21H7.15354V18.4655ZM0.39917 21V18.8276C0.39917 16.8145 2.72022 15.12 5.86407 14.6276C5.13951 15.6124 4.69741 16.9738 4.69741 18.4655V21H0.39917ZM29.8728 21H25.5746V18.4655C25.5746 16.9738 25.1325 15.6124 24.4079 14.6276C27.5518 15.12 29.8728 16.8145 29.8728 18.8276V21Z" fill="#6A6A6A"/>
</svg>
