<svg width="24" height="23" viewBox="0 0 24 23" fill="none" xmlns="http://www.w3.org/2000/svg">
<path d="M2.82297 0.250244C2.20688 0.250244 1.61603 0.487291 1.18038 0.909236C0.744741 1.33118 0.5 1.90346 0.5 2.50018V15.9998C0.5 16.5965 0.744741 17.1688 1.18038 17.5908C1.61603 18.0127 2.20688 18.2498 2.82297 18.2498H7.46892V21.6247C7.46892 21.923 7.59129 22.2092 7.80911 22.4201C8.02693 22.6311 8.32236 22.7496 8.63041 22.7496H9.21115C9.50152 22.7496 9.79189 22.6371 10.0242 22.4234L14.3217 18.2498H21.4068C22.0229 18.2498 22.6137 18.0127 23.0494 17.5908C23.485 17.1688 23.7297 16.5965 23.7297 15.9998V2.50018C23.7297 1.90346 23.485 1.33118 23.0494 0.909236C22.6137 0.487291 22.0229 0.250244 21.4068 0.250244H2.82297ZM2.82297 2.50018H21.4068V15.9998H13.3693L9.79189 19.4647V15.9998H2.82297V2.50018ZM12.3356 4.18764C11.3018 4.18764 10.4772 4.39013 9.84997 4.79512C9.21115 5.20011 8.88594 5.87509 8.94401 6.65132H11.2321C11.2321 6.33633 11.3483 6.10009 11.5341 5.94259C11.7664 5.78509 12.0219 5.70635 12.3356 5.70635C12.6956 5.70635 13.0092 5.79634 13.2183 5.99884C13.4273 6.19008 13.5319 6.43758 13.5319 6.77507C13.5319 7.09006 13.439 7.3713 13.2764 7.60754C13.0789 7.85504 12.835 8.05753 12.533 8.21503C11.929 8.57502 11.5341 8.89001 11.2902 9.16C11.0695 9.43 10.9534 9.81248 10.9534 10.375H13.2764C13.2764 10.06 13.3344 9.81248 13.439 9.60999C13.5435 9.41875 13.7409 9.25 14.0429 9.08125C14.5772 8.84501 15.0186 8.53002 15.3554 8.12503C15.6922 7.70879 15.8665 7.27005 15.8665 6.77507C15.8665 5.98759 15.5529 5.35761 14.9257 4.88512C14.2985 4.42388 13.4273 4.18764 12.3356 4.18764ZM10.9534 11.4999V13.7499H13.2764V11.4999H10.9534Z" fill="#3A4062"/>
</svg>
