<svg width="30" height="22" viewBox="0 0 30 22" fill="none" xmlns="http://www.w3.org/2000/svg">
<path d="M14.9827 0.25C16.1226 0.25 17.2159 0.78405 18.022 1.73467C18.8281 2.68528 19.2809 3.97459 19.2809 5.31897C19.2809 6.66334 18.8281 7.95265 18.022 8.90326C17.2159 9.85388 16.1226 10.3879 14.9827 10.3879C13.8427 10.3879 12.7494 9.85388 11.9434 8.90326C11.1373 7.95265 10.6844 6.66334 10.6844 5.31897C10.6844 3.97459 11.1373 2.68528 11.9434 1.73467C12.7494 0.78405 13.8427 0.25 14.9827 0.25ZM6.38619 3.87069C7.07391 3.87069 7.7125 4.08793 8.26513 4.47897C8.08092 6.55 8.59671 8.60655 9.65285 10.2141C9.03882 11.6045 7.81075 12.5603 6.38619 12.5603C5.40908 12.5603 4.47199 12.1026 3.78106 11.2878C3.09014 10.473 2.70199 9.36784 2.70199 8.21552C2.70199 7.0632 3.09014 5.95807 3.78106 5.14326C4.47199 4.32845 5.40908 3.87069 6.38619 3.87069ZM23.5791 3.87069C24.5563 3.87069 25.4933 4.32845 26.1843 5.14326C26.8752 5.95807 27.2633 7.0632 27.2633 8.21552C27.2633 9.36784 26.8752 10.473 26.1843 11.2878C25.4933 12.1026 24.5563 12.5603 23.5791 12.5603C22.1546 12.5603 20.9265 11.6045 20.3125 10.2141C21.3832 8.58399 21.8802 6.53001 21.7002 4.47897C22.2528 4.08793 22.8914 3.87069 23.5791 3.87069ZM7.00022 18.7155C7.00022 15.7176 10.5739 13.2845 14.9827 13.2845C19.3914 13.2845 22.9651 15.7176 22.9651 18.7155V21.25H7.00022V18.7155ZM0.24585 21.25V19.0776C0.24585 17.0645 2.5669 15.37 5.71075 14.8776C4.98619 15.8624 4.54409 17.2238 4.54409 18.7155V21.25H0.24585ZM29.7195 21.25H25.4212V18.7155C25.4212 17.2238 24.9791 15.8624 24.2546 14.8776C27.3984 15.37 29.7195 17.0645 29.7195 19.0776V21.25Z" fill="#6A6A6A"/>
</svg>
