<svg width="13" height="7" viewBox="0 0 13 7" fill="none" xmlns="http://www.w3.org/2000/svg">
<path d="M6.45184 6.78175C6.31851 6.78175 6.19351 6.76108 6.07684 6.71975C5.96018 6.67841 5.85184 6.60741 5.75184 6.50675L1.12684 1.88175C0.943511 1.69841 0.856178 1.46908 0.864845 1.19375C0.873511 0.918415 0.969178 0.689415 1.15184 0.506748C1.33518 0.323415 1.56851 0.231748 1.85184 0.231748C2.13518 0.231748 2.36851 0.323415 2.55184 0.506748L6.45184 4.40675L10.3768 0.481748C10.5602 0.298414 10.7895 0.210748 11.0648 0.218748C11.3402 0.226748 11.5692 0.322748 11.7518 0.506748C11.9352 0.690082 12.0268 0.923415 12.0268 1.20675C12.0268 1.49008 11.9352 1.72341 11.7518 1.90675L7.15184 6.50675C7.05184 6.60675 6.94351 6.67775 6.82684 6.71975C6.71018 6.76175 6.58518 6.78241 6.45184 6.78175Z" fill="#E6EDFD"/>
</svg>
