<svg width="38" height="38" viewBox="0 0 38 38" fill="none" xmlns="http://www.w3.org/2000/svg">
<path d="M16.8857 7.39603C16.8857 8.01763 16.6487 8.61378 16.2267 9.05332C15.8048 9.49285 15.2325 9.73978 14.6357 9.73978H2.63574C2.03901 9.73978 1.46671 9.49285 1.04475 9.05332C0.622795 8.61378 0.385742 8.01763 0.385742 7.39603C0.385742 6.77443 0.622795 6.17829 1.04475 5.73875C1.46671 5.29921 2.03901 5.05228 2.63574 5.05228H14.6357C15.2325 5.05228 15.8048 5.29921 16.2267 5.73875C16.6487 6.17829 16.8857 6.77443 16.8857 7.39603ZM14.6357 26.9273H10.8857V23.021C10.8857 22.3994 10.6487 21.8033 10.2267 21.3638C9.80478 20.9242 9.23248 20.6773 8.63574 20.6773C8.03901 20.6773 7.46671 20.9242 7.04475 21.3638C6.62279 21.8033 6.38574 22.3994 6.38574 23.021V26.9273H2.63574C2.03901 26.9273 1.46671 27.1742 1.04475 27.6138C0.622795 28.0533 0.385742 28.6494 0.385742 29.271C0.385742 29.8926 0.622795 30.4888 1.04475 30.9283C1.46671 31.3679 2.03901 31.6148 2.63574 31.6148H6.38574V35.521C6.38574 36.1426 6.62279 36.7388 7.04475 37.1783C7.46671 37.6179 8.03901 37.8648 8.63574 37.8648C9.23248 37.8648 9.80478 37.6179 10.2267 37.1783C10.6487 36.7388 10.8857 36.1426 10.8857 35.521V31.6148H14.6357C15.2325 31.6148 15.8048 31.3679 16.2267 30.9283C16.6487 30.4888 16.8857 29.8926 16.8857 29.271C16.8857 28.6494 16.6487 28.0533 16.2267 27.6138C15.8048 27.1742 15.2325 26.9273 14.6357 26.9273ZM23.6357 27.7085H35.6357C36.2325 27.7085 36.8048 27.4616 37.2267 27.0221C37.6487 26.5825 37.8857 25.9864 37.8857 25.3648C37.8857 24.7432 37.6487 24.147 37.2267 23.7075C36.8048 23.268 36.2325 23.021 35.6357 23.021H23.6357C23.039 23.021 22.4667 23.268 22.0448 23.7075C21.6228 24.147 21.3857 24.7432 21.3857 25.3648C21.3857 25.9864 21.6228 26.5825 22.0448 27.0221C22.4667 27.4616 23.039 27.7085 23.6357 27.7085ZM35.6357 30.8335H23.6357C23.039 30.8335 22.4667 31.0805 22.0448 31.52C21.6228 31.9595 21.3857 32.5557 21.3857 33.1773C21.3857 33.7989 21.6228 34.395 22.0448 34.8346C22.4667 35.2741 23.039 35.521 23.6357 35.521H35.6357C36.2325 35.521 36.8048 35.2741 37.2267 34.8346C37.6487 34.395 37.8857 33.7989 37.8857 33.1773C37.8857 32.5557 37.6487 31.9595 37.2267 31.52C36.8048 31.0805 36.2325 30.8335 35.6357 30.8335ZM23.5439 13.7417C23.7529 13.9602 24.0013 14.1336 24.2748 14.2519C24.5483 14.3702 24.8415 14.4311 25.1376 14.4311C25.4337 14.4311 25.727 14.3702 26.0005 14.2519C26.2739 14.1336 26.5223 13.9602 26.7314 13.7417L29.6357 10.7163L32.5439 13.7476C32.9666 14.1879 33.5398 14.4353 34.1376 14.4353C34.7354 14.4353 35.3087 14.1879 35.7314 13.7476C36.1541 13.3073 36.3915 12.7101 36.3915 12.0874C36.3915 11.4648 36.1541 10.8676 35.7314 10.4273L32.8232 7.39603L35.7332 4.36674C36.1559 3.92644 36.3934 3.32926 36.3934 2.70658C36.3934 2.0839 36.1559 1.48672 35.7332 1.04642C35.3106 0.606123 34.7373 0.358765 34.1395 0.358765C33.5417 0.358765 32.9684 0.606123 32.5457 1.04642L29.6357 4.07572L26.7276 1.05033C26.3049 0.610029 25.7316 0.362671 25.1339 0.362671C24.5361 0.362671 23.9628 0.61003 23.5401 1.05033C23.1174 1.49063 22.88 2.08781 22.88 2.71049C22.88 3.33317 23.1174 3.93034 23.5401 4.37064L26.4482 7.39603L23.5439 10.4253C23.3347 10.643 23.1687 10.9015 23.0555 11.186C22.9423 11.4705 22.884 11.7755 22.884 12.0835C22.884 12.3915 22.9423 12.6965 23.0555 12.981C23.1687 13.2656 23.3347 13.5241 23.5439 13.7417Z" fill="#2F3240"/>
</svg>
