<svg width="30" height="21" viewBox="0 0 30 21" fill="none" xmlns="http://www.w3.org/2000/svg">
<path d="M14.8643 0C16.0042 0 17.0975 0.53405 17.9036 1.48467C18.7096 2.43528 19.1625 3.72459 19.1625 5.06897C19.1625 6.41334 18.7096 7.70265 17.9036 8.65326C17.0975 9.60388 16.0042 10.1379 14.8643 10.1379C13.7243 10.1379 12.631 9.60388 11.8249 8.65326C11.0189 7.70265 10.566 6.41334 10.566 5.06897C10.566 3.72459 11.0189 2.43528 11.8249 1.48467C12.631 0.53405 13.7243 0 14.8643 0ZM6.26778 3.62069C6.9555 3.62069 7.5941 3.83793 8.14673 4.22897C7.96252 6.3 8.4783 8.35655 9.53444 9.96414C8.92041 11.3545 7.69234 12.3103 6.26778 12.3103C5.29067 12.3103 4.35358 11.8526 3.66266 11.0378C2.97173 10.223 2.58358 9.11784 2.58358 7.96552C2.58358 6.8132 2.97173 5.70807 3.66266 4.89326C4.35358 4.07845 5.29067 3.62069 6.26778 3.62069ZM23.4607 3.62069C24.4378 3.62069 25.3749 4.07845 26.0659 4.89326C26.7568 5.70807 27.1449 6.8132 27.1449 7.96552C27.1449 9.11784 26.7568 10.223 26.0659 11.0378C25.3749 11.8526 24.4378 12.3103 23.4607 12.3103C22.0362 12.3103 20.8081 11.3545 20.1941 9.96414C21.2648 8.33399 21.7618 6.28001 21.5818 4.22897C22.1344 3.83793 22.773 3.62069 23.4607 3.62069ZM6.88182 18.4655C6.88182 15.4676 10.4555 13.0345 14.8643 13.0345C19.273 13.0345 22.8467 15.4676 22.8467 18.4655V21H6.88182V18.4655ZM0.127441 21V18.8276C0.127441 16.8145 2.44849 15.12 5.59234 14.6276C4.86778 15.6124 4.42568 16.9738 4.42568 18.4655V21H0.127441ZM29.6011 21H25.3028V18.4655C25.3028 16.9738 24.8607 15.6124 24.1362 14.6276C27.28 15.12 29.6011 16.8145 29.6011 18.8276V21Z" fill="#6A6A6A"/>
</svg>
