<svg width="31" height="22" viewBox="0 0 31 22" fill="none" xmlns="http://www.w3.org/2000/svg">
<path d="M15.3469 0.25C16.4869 0.25 17.5802 0.78405 18.3862 1.73467C19.1923 2.68528 19.6452 3.97459 19.6452 5.31897C19.6452 6.66334 19.1923 7.95265 18.3862 8.90326C17.5802 9.85388 16.4869 10.3879 15.3469 10.3879C14.207 10.3879 13.1137 9.85388 12.3076 8.90326C11.5015 7.95265 11.0487 6.66334 11.0487 5.31897C11.0487 3.97459 11.5015 2.68528 12.3076 1.73467C13.1137 0.78405 14.207 0.25 15.3469 0.25ZM6.75045 3.87069C7.43817 3.87069 8.07676 4.08793 8.62939 4.47897C8.44518 6.55 8.96097 8.60655 10.0171 10.2141C9.40307 11.6045 8.17501 12.5603 6.75045 12.5603C5.77334 12.5603 4.83624 12.1026 4.14532 11.2878C3.4544 10.473 3.06624 9.36784 3.06624 8.21552C3.06624 7.0632 3.4544 5.95807 4.14532 5.14326C4.83624 4.32845 5.77334 3.87069 6.75045 3.87069ZM23.9434 3.87069C24.9205 3.87069 25.8576 4.32845 26.5485 5.14326C27.2394 5.95807 27.6276 7.0632 27.6276 8.21552C27.6276 9.36784 27.2394 10.473 26.5485 11.2878C25.8576 12.1026 24.9205 12.5603 23.9434 12.5603C22.5188 12.5603 21.2908 11.6045 20.6767 10.2141C21.7475 8.58399 22.2445 6.53001 22.0645 4.47897C22.6171 4.08793 23.2557 3.87069 23.9434 3.87069ZM7.36448 18.7155C7.36448 15.7176 10.9382 13.2845 15.3469 13.2845C19.7557 13.2845 23.3294 15.7176 23.3294 18.7155V21.25H7.36448V18.7155ZM0.610107 21.25V19.0776C0.610107 17.0645 2.93116 15.37 6.07501 14.8776C5.35045 15.8624 4.90835 17.2238 4.90835 18.7155V21.25H0.610107ZM30.0837 21.25H25.7855V18.7155C25.7855 17.2238 25.3434 15.8624 24.6188 14.8776C27.7627 15.37 30.0837 17.0645 30.0837 19.0776V21.25Z" fill="#6A6A6A"/>
</svg>
