<svg width="31" height="22" viewBox="0 0 31 22" fill="none" xmlns="http://www.w3.org/2000/svg">
<path d="M15.5 0.833496C16.64 0.833496 17.7332 1.36755 18.5393 2.31816C19.3454 3.26878 19.7982 4.55809 19.7982 5.90246C19.7982 7.24683 19.3454 8.53615 18.5393 9.48676C17.7332 10.4374 16.64 10.9714 15.5 10.9714C14.36 10.9714 13.2668 10.4374 12.4607 9.48676C11.6546 8.53615 11.2018 7.24683 11.2018 5.90246C11.2018 4.55809 11.6546 3.26878 12.4607 2.31816C13.2668 1.36755 14.36 0.833496 15.5 0.833496ZM6.90352 4.45419C7.59124 4.45419 8.22984 4.67143 8.78247 5.06246C8.59826 7.1335 9.11405 9.19005 10.1702 10.7976C9.55615 12.188 8.32808 13.1438 6.90352 13.1438C5.92641 13.1438 4.98932 12.6861 4.2984 11.8713C3.60748 11.0565 3.21932 9.95133 3.21932 8.79901C3.21932 7.64669 3.60748 6.54157 4.2984 5.72676C4.98932 4.91194 5.92641 4.45419 6.90352 4.45419ZM24.0965 4.45419C25.0736 4.45419 26.0107 4.91194 26.7016 5.72676C27.3925 6.54157 27.7807 7.64669 27.7807 8.79901C27.7807 9.95133 27.3925 11.0565 26.7016 11.8713C26.0107 12.6861 25.0736 13.1438 24.0965 13.1438C22.6719 13.1438 21.4438 12.188 20.8298 10.7976C21.9005 9.16748 22.3975 7.11351 22.2175 5.06246C22.7702 4.67143 23.4088 4.45419 24.0965 4.45419ZM7.51756 19.299C7.51756 16.3011 11.0912 13.868 15.5 13.868C19.9088 13.868 23.4824 16.3011 23.4824 19.299V21.8335H7.51756V19.299ZM0.763184 21.8335V19.6611C0.763184 17.648 3.08423 15.9535 6.22809 15.4611C5.50353 16.4459 5.06142 17.8073 5.06142 19.299V21.8335H0.763184ZM30.2368 21.8335H25.9386V19.299C25.9386 17.8073 25.4965 16.4459 24.7719 15.4611C27.9158 15.9535 30.2368 17.648 30.2368 19.6611V21.8335Z" fill="#90A1F5"/>
</svg>
